# Blender 4.3.2
# www.blender.org
mtllib Desk Game Res.mtl
o Desk_LR
v -1.465386 0.906793 -0.240855
v -1.465386 0.040650 0.202570
v -1.425304 0.769914 0.202570
v -1.465386 0.809996 0.461610
v -1.465386 0.906793 0.461610
v 1.465386 0.906793 -0.240855
v 1.440386 0.065650 0.202570
v 1.465386 0.809996 0.202570
v 1.465386 0.809996 0.461610
v 1.465386 0.906793 0.461610
v -0.891443 0.040650 0.202570
v -0.891443 0.809996 -0.240855
v -0.931525 0.769914 0.202570
v 0.401301 0.065650 0.202570
v 0.376301 0.809996 -0.240855
v 0.376301 0.809996 0.202570
v -1.425304 0.135939 0.202570
v -0.931525 0.135939 0.202570
v -1.465386 0.809996 0.202570
v -0.891443 0.809996 0.202570
v -1.425304 0.135939 -0.188842
v -1.425304 0.769914 -0.188842
v -0.931525 0.769914 -0.188842
v -0.931525 0.135939 -0.188842
v 1.440386 0.577388 0.202570
v 0.401301 0.577388 0.202570
v 1.440386 0.774370 0.202570
v 0.401301 0.774370 0.202570
v 0.895843 0.065650 0.202570
v 0.895843 0.577388 0.202570
v 0.895843 0.774370 0.202570
v 0.945843 0.065650 0.202570
v 0.376301 0.040650 0.202570
v 0.401301 0.614680 0.202570
v 0.945843 0.577388 0.202570
v 1.465386 0.040650 0.202570
v 1.440386 0.614680 0.202570
v 0.895843 0.614680 0.202570
v 0.945843 0.614680 0.202570
v 0.945843 0.774370 0.202570
v 0.895843 0.614680 0.227468
v 0.401301 0.614680 0.227468
v 0.401301 0.774370 0.227468
v 0.895843 0.774370 0.227468
v 1.440386 0.614680 0.227468
v 1.440386 0.774370 0.227468
v 0.945843 0.614680 0.227468
v 0.945843 0.774370 0.227468
v 0.895843 0.065650 -0.101814
v 0.401301 0.065650 -0.101814
v 0.401301 0.577388 -0.101814
v 0.895843 0.577388 -0.101814
v 1.440386 0.065650 -0.101814
v 1.440386 0.577388 -0.101814
v 0.945843 0.065650 -0.101814
v 0.945843 0.577388 -0.101814
v -1.465386 0.040650 0.159395
v 1.465386 0.040650 0.159395
v -0.891443 0.040650 0.159395
v 0.376301 0.040650 0.159395
v -0.891443 0.000000 -0.240855
v -1.465386 0.000000 -0.240855
v 1.465386 0.000000 -0.240855
v 0.376301 0.000000 0.159395
v 0.376301 0.000000 -0.240855
v -1.465386 0.000000 0.159395
v 1.465386 0.000000 0.159395
v -0.891443 0.000000 0.159395
vn -1.0000 -0.0000 -0.0000
vn -0.0000 -1.0000 -0.0000
vn -0.0000 1.0000 -0.0000
vn -0.0000 -0.0000 1.0000
vn -0.0000 -0.0000 -1.0000
vn 1.0000 -0.0000 -0.0000
vt 0.744673 0.216525
vt 0.813607 0.216525
vt 0.813607 0.242284
vt 0.626674 0.242284
vt 0.612832 0.000977
vt 0.612832 0.132376
vt 0.508674 0.132376
vt 0.508674 0.000977
vt 0.245792 0.780886
vt 0.245792 0.000977
vt 0.432725 0.000977
vt 0.432725 0.780886
vt 0.010457 0.308778
vt 0.010457 0.440381
vt 0.000977 0.447034
vt 0.000977 0.157217
vt 0.010457 0.163870
vt 0.010457 0.295473
vt 0.436233 0.780886
vt 0.436233 0.000977
vt 0.505166 0.153709
vt 0.505166 0.491069
vt 0.000977 0.000977
vt 0.242284 0.000977
vt 0.216525 0.153709
vt 0.000977 0.153709
vt 0.750866 0.427388
vt 0.750866 0.274656
vt 0.762355 0.274656
vt 0.762355 0.427388
vt 0.505166 0.000977
vt 0.216525 0.491069
vt 0.242284 0.780886
vt 0.290793 0.856211
vt 0.000977 0.856211
vt 0.000977 0.845393
vt 0.290793 0.845393
vt 0.000977 0.868862
vt 0.780885 0.868862
vt 0.780885 0.894620
vt 0.000977 0.894620
vt 0.845729 0.747354
vt 0.845729 0.853865
vt 0.834912 0.853865
vt 0.630181 0.747354
vt 0.637340 0.271149
vt 0.637340 0.439856
vt 0.626674 0.450522
vt 0.626674 0.245791
vt 0.768739 0.439856
vt 0.779406 0.450522
vt 0.768739 0.271149
vt 0.779406 0.245791
vt 0.748181 0.169684
vt 0.748181 0.000977
vt 0.879581 0.000977
vt 0.879581 0.169684
vt 0.953396 0.801954
vt 0.953396 0.970661
vt 0.849237 0.970661
vt 0.849237 0.801954
vt 0.861707 0.554185
vt 0.861707 0.385478
vt 0.965866 0.385478
vt 0.965866 0.554185
vt 0.883088 0.132376
vt 0.883088 0.000977
vt 0.987247 0.000977
vt 0.987247 0.132376
vt 0.000977 0.898128
vt 0.137155 0.898128
vt 0.137155 0.979128
vt 0.000977 0.979128
vt 0.000977 0.491069
vt 0.000977 0.780886
vt 0.520163 0.579662
vt 0.626674 0.810152
vt 0.508674 0.784393
vt 0.508674 0.579662
vt 0.691325 0.979128
vt 0.559722 0.979128
vt 0.559722 0.898128
vt 0.691325 0.898128
vt 0.071484 0.384587
vt 0.071484 0.342092
vt 0.078110 0.342092
vt 0.078110 0.384587
vt 0.132580 0.480135
vt 0.000977 0.480135
vt 0.000977 0.473509
vt 0.132580 0.473509
vt 0.199055 0.295473
vt 0.199055 0.163870
vt 0.205708 0.157217
vt 0.052952 0.163870
vt 0.052952 0.440381
vt 0.290794 0.830396
vt 0.290794 0.841886
vt 0.000977 0.841886
vt 0.000977 0.830396
vt 0.052952 0.308778
vt 0.062876 0.308778
vt 0.062876 0.440381
vt 0.062876 0.163870
vt 0.132580 0.826889
vt 0.000977 0.826889
vt 0.000977 0.784393
vt 0.132580 0.784393
vt 0.136087 0.784393
vt 0.267690 0.784393
vt 0.267690 0.826889
vt 0.136087 0.826889
vt 0.990324 0.406105
vt 0.990324 0.537708
vt 0.983698 0.537708
vt 0.983698 0.406105
vt 0.983698 0.402597
vt 0.983698 0.270994
vt 0.990324 0.270994
vt 0.990324 0.402597
vt 0.146534 0.312286
vt 0.146534 0.354781
vt 0.139908 0.354781
vt 0.139908 0.312286
vt 0.071484 0.239678
vt 0.071484 0.197183
vt 0.078110 0.197183
vt 0.078110 0.239678
vt 0.986497 0.801954
vt 0.986497 0.933557
vt 0.979871 0.933557
vt 0.979871 0.801954
vt 0.146534 0.358289
vt 0.146534 0.400784
vt 0.139908 0.400784
vt 0.139908 0.358289
vt 0.914516 0.245791
vt 0.914516 0.381970
vt 0.782913 0.381970
vt 0.782913 0.245791
vt 0.981820 0.662268
vt 0.981820 0.798447
vt 0.850218 0.798447
vt 0.850218 0.662268
vt 0.826435 0.979128
vt 0.694832 0.979128
vt 0.694832 0.898128
vt 0.826435 0.898128
vt 0.999023 0.135884
vt 0.999023 0.267487
vt 0.918024 0.267487
vt 0.918024 0.135884
vt 0.556214 0.979128
vt 0.420036 0.979128
vt 0.420036 0.898128
vt 0.556214 0.898128
vt 0.140663 0.898128
vt 0.276842 0.898128
vt 0.276842 0.979128
vt 0.140663 0.979128
vt 0.993310 0.638692
vt 0.861707 0.638692
vt 0.861707 0.557692
vt 0.993310 0.557692
vt 0.416528 0.979128
vt 0.280349 0.979128
vt 0.280349 0.898128
vt 0.416528 0.898128
vt 0.834912 0.865354
vt 0.630181 0.865354
vt 0.740199 0.669578
vt 0.740199 0.454030
vt 0.846710 0.658760
vt 0.846710 0.669578
vt 0.623166 0.153709
vt 0.623166 0.491069
vt 0.505166 0.780886
vt 0.733184 0.011794
vt 0.626674 0.000977
vt 0.733184 0.000977
vt 0.640848 0.427388
vt 0.640847 0.274656
vt 0.747358 0.274656
vt 0.747358 0.427388
vt 0.980191 0.270994
vt 0.980191 0.423726
vt 0.969373 0.423726
vt 0.969373 0.270994
vt 0.520163 0.568845
vt 0.626674 0.568845
vt 0.858199 0.454030
vt 0.858199 0.658760
vt 0.439740 0.810152
vt 0.439740 0.784393
vt 0.052952 0.295473
vt 0.062876 0.295473
vt 0.744673 0.011794
vt 0.199055 0.308778
vt 0.630181 0.743847
vt 0.630181 0.454030
vt 0.736692 0.454030
vt 0.736692 0.743847
vt 0.205707 0.447034
vt 0.199054 0.440381
s 0
usemtl Desk
f 19/1/1 4/2/1 5/3/1 1/4/1
f 13/5/2 3/6/2 22/7/2 23/8/2
f 5/9/3 10/10/3 6/11/3 1/12/3
f 40/13/4 27/14/4 8/15/4 16/16/4 28/17/4 31/18/4
f 9/19/2 4/20/2 20/21/2 16/22/2
f 62/23/5 1/24/5 12/25/5 61/26/5
f 57/27/2 59/28/2 11/29/2 2/30/2
f 19/31/2 20/21/2 4/20/2
f 15/32/5 12/25/5 1/24/5 6/33/5
f 58/34/4 60/35/4 64/36/4 67/37/4
f 4/38/4 9/39/4 10/40/4 5/41/4
f 65/42/1 64/43/1 60/44/1 15/45/1
f 17/46/4 3/47/4 19/48/4 2/49/4
f 3/47/4 13/50/4 20/51/4 19/48/4
f 13/50/4 18/52/4 11/53/4 20/51/4
f 18/52/4 17/46/4 2/49/4 11/53/4
f 24/54/4 23/55/4 22/56/4 21/57/4
f 18/58/1 13/59/1 23/60/1 24/61/1
f 3/62/6 17/63/6 21/64/6 22/65/6
f 17/66/3 18/67/3 24/68/3 21/69/3
f 35/70/6 32/71/6 55/72/6 56/73/6
f 65/74/5 15/32/5 6/33/5 63/75/5
f 58/76/6 6/77/6 8/78/6 36/79/6
f 30/80/2 26/81/2 51/82/2 52/83/2
f 40/84/1 39/85/1 47/86/1 48/87/1
f 31/88/3 28/89/3 43/90/3 44/91/3
f 29/92/4 14/93/4 33/94/4
f 16/16/4 34/95/4 28/17/4
f 27/14/4 37/96/4 8/15/4
f 58/97/2 36/98/2 33/99/2 60/100/2
f 37/96/4 39/101/4 35/102/4 25/103/4
f 16/16/4 26/104/4 34/95/4
f 42/105/4 41/106/4 44/107/4 43/108/4
f 47/109/4 45/110/4 46/111/4 48/112/4
f 34/113/2 38/114/2 41/115/2 42/116/2
f 39/117/2 37/118/2 45/119/2 47/120/2
f 38/121/6 31/122/6 44/123/6 41/124/6
f 28/125/1 34/126/1 42/127/1 43/128/1
f 27/129/3 40/130/3 48/131/3 46/132/3
f 37/133/6 27/134/6 46/135/6 45/136/6
f 49/137/4 52/138/4 51/139/4 50/140/4
f 53/141/4 54/142/4 56/143/4 55/144/4
f 14/145/3 29/146/3 49/147/3 50/148/3
f 32/149/3 7/150/3 53/151/3 55/152/3
f 29/153/1 30/154/1 52/155/1 49/156/1
f 26/157/6 14/158/6 50/159/6 51/160/6
f 25/161/2 35/162/2 56/163/2 54/164/2
f 7/165/1 25/166/1 54/167/1 53/168/1
f 60/44/1 33/169/1 16/170/1 15/45/1
f 61/171/6 12/172/6 59/173/6 68/174/6
f 12/175/2 15/176/2 16/22/2 20/21/2
f 8/177/2 9/19/2 16/22/2
f 57/178/1 1/4/1 62/179/1 66/180/1
f 62/181/2 61/182/2 68/183/2 66/184/2
f 59/185/4 57/186/4 66/187/4 68/188/4
f 58/76/6 67/189/6 63/190/6 6/77/6
f 12/172/6 20/191/6 11/192/6 59/173/6
f 8/78/6 6/77/6 10/193/6 9/194/6
f 39/101/4 40/13/4 31/18/4 38/195/4
f 39/101/4 38/195/4 30/196/4 35/102/4
f 38/195/4 34/95/4 26/104/4 30/196/4
f 2/197/1 19/1/1 1/4/1 57/178/1
f 33/94/4 14/93/4 26/104/4 16/16/4
f 35/102/4 30/196/4 29/92/4 32/198/4
f 67/199/2 64/200/2 65/201/2 63/202/2
f 32/198/4 29/92/4 33/94/4 36/203/4
f 7/204/4 32/198/4 36/203/4
f 37/96/4 25/103/4 8/15/4
f 25/103/4 7/204/4 36/203/4 8/15/4
o Handles_LR
v 0.765361 0.674309 0.226604
v 0.531783 0.674309 0.226604
v 0.765361 0.719065 0.226604
v 0.531783 0.719065 0.226604
v 0.761300 0.678370 0.230808
v 0.535844 0.678370 0.230808
v 0.761300 0.715004 0.230808
v 0.535844 0.715004 0.230808
v 0.765361 0.674309 0.230808
v 0.531783 0.674309 0.230808
v 0.765361 0.719065 0.230808
v 0.531783 0.719065 0.230808
v 0.740201 0.678370 0.230808
v 0.556930 0.678370 0.230808
v 0.740201 0.715004 0.230808
v 0.556930 0.715004 0.230808
v 0.556930 0.678370 0.237726
v 0.535844 0.678370 0.237726
v 0.556930 0.715004 0.237726
v 0.535844 0.715004 0.237726
v 0.761300 0.678370 0.237726
v 0.761300 0.715004 0.237726
v 0.740201 0.678370 0.237726
v 0.740201 0.715004 0.237726
v 0.757503 0.678370 0.247652
v 0.746933 0.678370 0.255923
v 0.730822 0.678370 0.262540
v 0.710401 0.678370 0.267502
v 0.686901 0.678370 0.270811
v 0.661554 0.678370 0.272465
v 0.635591 0.678370 0.272465
v 0.610244 0.678370 0.270811
v 0.586744 0.678370 0.267502
v 0.566322 0.678370 0.262540
v 0.550211 0.678370 0.255923
v 0.539641 0.678370 0.247652
v 0.539641 0.715004 0.247652
v 0.550211 0.715004 0.255923
v 0.566322 0.715004 0.262540
v 0.586744 0.715004 0.267502
v 0.610244 0.715004 0.270811
v 0.635591 0.715004 0.272465
v 0.661554 0.715004 0.272465
v 0.686901 0.715004 0.270811
v 0.710401 0.715004 0.267502
v 0.730822 0.715004 0.262540
v 0.746933 0.715004 0.255923
v 0.757503 0.715004 0.247652
v 0.560017 0.715004 0.245794
v 0.568609 0.715004 0.252518
v 0.581705 0.715004 0.257897
v 0.598306 0.715004 0.261931
v 0.617409 0.715004 0.264620
v 0.638013 0.715004 0.265965
v 0.659118 0.715004 0.265965
v 0.679722 0.715004 0.264620
v 0.698825 0.715004 0.261931
v 0.715426 0.715004 0.257897
v 0.728522 0.715004 0.252518
v 0.737114 0.715004 0.245794
v 0.560017 0.678370 0.245794
v 0.568609 0.678370 0.252518
v 0.581705 0.678370 0.257897
v 0.598306 0.678370 0.261931
v 0.617409 0.678370 0.264620
v 0.638013 0.678370 0.265965
v 0.659118 0.678370 0.265965
v 0.679722 0.678370 0.264620
v 0.698825 0.678370 0.261931
v 0.715426 0.678370 0.257897
v 0.728522 0.678370 0.252518
v 0.737114 0.678370 0.245794
v 1.076326 0.674309 0.226604
v 1.309903 0.674309 0.226604
v 1.076326 0.719065 0.226604
v 1.309903 0.719065 0.226604
v 1.080387 0.678370 0.230808
v 1.305843 0.678370 0.230808
v 1.080387 0.715004 0.230808
v 1.305843 0.715004 0.230808
v 1.076326 0.674309 0.230808
v 1.309903 0.674309 0.230808
v 1.076326 0.719065 0.230808
v 1.309903 0.719065 0.230808
v 1.101486 0.678370 0.230808
v 1.284757 0.678370 0.230808
v 1.101486 0.715004 0.230808
v 1.284757 0.715004 0.230808
v 1.284757 0.678370 0.237726
v 1.305843 0.678370 0.237726
v 1.284757 0.715004 0.237726
v 1.305843 0.715004 0.237726
v 1.080387 0.678370 0.237726
v 1.080387 0.715004 0.237726
v 1.101486 0.678370 0.237726
v 1.101486 0.715004 0.237726
v 1.084184 0.678370 0.247652
v 1.094753 0.678370 0.255923
v 1.110865 0.678370 0.262540
v 1.131286 0.678370 0.267502
v 1.154786 0.678370 0.270811
v 1.180133 0.678370 0.272465
v 1.206096 0.678370 0.272465
v 1.231443 0.678370 0.270811
v 1.254943 0.678370 0.267502
v 1.275364 0.678370 0.262540
v 1.291476 0.678370 0.255923
v 1.302046 0.678370 0.247652
v 1.302046 0.715004 0.247652
v 1.291476 0.715004 0.255923
v 1.275364 0.715004 0.262540
v 1.254943 0.715004 0.267502
v 1.231443 0.715004 0.270811
v 1.206096 0.715004 0.272465
v 1.180133 0.715004 0.272465
v 1.154786 0.715004 0.270811
v 1.131286 0.715004 0.267502
v 1.110865 0.715004 0.262540
v 1.094753 0.715004 0.255923
v 1.084184 0.715004 0.247652
v 1.281670 0.715004 0.245794
v 1.273078 0.715004 0.252518
v 1.259981 0.715004 0.257897
v 1.243381 0.715004 0.261931
v 1.224278 0.715004 0.264620
v 1.203674 0.715004 0.265965
v 1.182569 0.715004 0.265965
v 1.161964 0.715004 0.264620
v 1.142861 0.715004 0.261931
v 1.126261 0.715004 0.257897
v 1.113164 0.715004 0.252518
v 1.104572 0.715004 0.245794
v 1.281670 0.678370 0.245794
v 1.273078 0.678370 0.252518
v 1.259981 0.678370 0.257897
v 1.243381 0.678370 0.261931
v 1.224278 0.678370 0.264620
v 1.203674 0.678370 0.265965
v 1.182569 0.678370 0.265965
v 1.161964 0.678370 0.264620
v 1.142861 0.678370 0.261931
v 1.126261 0.678370 0.257897
v 1.113164 0.678370 0.252518
v 1.104572 0.678370 0.245794
vn 1.0000 -0.0000 -0.0000
vn 0.9834 -0.0000 0.1817
vn -0.0000 -0.0000 1.0000
vn -1.0000 -0.0000 -0.0000
vn -0.0000 -1.0000 -0.0000
vn -0.0000 1.0000 -0.0000
vn 0.8044 -0.0000 0.5941
vn 0.9834 -0.0000 -0.1817
vn -0.9834 -0.0000 0.1817
vn -0.9834 -0.0000 -0.1817
vn -0.8044 -0.0000 -0.5941
vn 0.5028 -0.0000 0.8644
vn 0.3089 -0.0000 0.9511
vn 0.1880 -0.0000 0.9822
vn 0.1023 -0.0000 0.9947
vn 0.0326 -0.0000 0.9995
vn -0.0326 -0.0000 0.9995
vn -0.1023 -0.0000 0.9947
vn -0.1880 -0.0000 0.9822
vn -0.3089 -0.0000 0.9511
vn -0.5028 -0.0000 0.8644
vn -0.8044 -0.0000 0.5941
vn -0.5028 -0.0000 -0.8644
vn -0.3089 -0.0000 -0.9511
vn -0.1880 -0.0000 -0.9822
vn -0.1023 -0.0000 -0.9947
vn -0.0326 -0.0000 -0.9995
vn 0.0326 -0.0000 -0.9995
vn 0.1023 -0.0000 -0.9947
vn 0.1880 -0.0000 -0.9822
vn 0.3089 -0.0000 -0.9511
vn 0.5028 -0.0000 -0.8644
vn 0.8044 -0.0000 -0.5941
vt 0.000977 0.470002
vt 0.000977 0.450541
vt 0.004651 0.450541
vt 0.004651 0.470002
vt 0.068617 0.243186
vt 0.068617 0.266961
vt 0.066383 0.266961
vt 0.066383 0.243186
vt 0.016122 0.180736
vt 0.016122 0.278091
vt 0.013964 0.291456
vt 0.013964 0.167377
vt 0.092020 0.247947
vt 0.092020 0.224173
vt 0.094253 0.224173
vt 0.094253 0.247947
vt 0.016122 0.169534
vt 0.035582 0.289299
vt 0.035582 0.278091
vt 0.037739 0.291456
vt 0.035582 0.169534
vt 0.037739 0.167377
vt 0.016122 0.289299
vt 0.035582 0.180736
vt 0.139908 0.291456
vt 0.139908 0.167377
vt 0.142142 0.167377
vt 0.142142 0.291456
vt 0.145650 0.291456
vt 0.145650 0.167377
vt 0.147883 0.167377
vt 0.147883 0.291456
vt 0.066384 0.178585
vt 0.066384 0.167377
vt 0.070058 0.167377
vt 0.070058 0.178585
vt 0.089238 0.287142
vt 0.089238 0.275934
vt 0.093524 0.274294
vt 0.094511 0.285125
vt 0.010296 0.450541
vt 0.010296 0.470002
vt 0.085563 0.178578
vt 0.085563 0.167377
vt 0.089238 0.167377
vt 0.089238 0.178578
vt 0.111199 0.312286
vt 0.130660 0.312286
vt 0.130660 0.315961
vt 0.111199 0.315961
vt 0.140699 0.450541
vt 0.140699 0.470002
vt 0.137024 0.470002
vt 0.137024 0.450541
vt 0.066384 0.287142
vt 0.066384 0.275941
vt 0.070058 0.275941
vt 0.070058 0.287142
vt 0.130660 0.427240
vt 0.111199 0.427240
vt 0.111199 0.423565
vt 0.130660 0.423565
vt 0.085563 0.287142
vt 0.085563 0.275934
vt 0.111199 0.418976
vt 0.130660 0.418976
vt 0.075331 0.169394
vt 0.074344 0.180225
vt 0.017426 0.450541
vt 0.017426 0.470002
vt 0.026678 0.450541
vt 0.026678 0.470002
vt 0.037842 0.450541
vt 0.037842 0.470002
vt 0.050449 0.450541
vt 0.050449 0.470002
vt 0.063942 0.450541
vt 0.063942 0.470002
vt 0.077734 0.450541
vt 0.077734 0.470002
vt 0.091227 0.450541
vt 0.091227 0.470002
vt 0.103833 0.450541
vt 0.103833 0.470002
vt 0.114997 0.450541
vt 0.114997 0.470002
vt 0.124249 0.450541
vt 0.124249 0.470002
vt 0.131379 0.450541
vt 0.131379 0.470002
vt 0.097096 0.269730
vt 0.098904 0.279510
vt 0.099953 0.262773
vt 0.102419 0.270951
vt 0.102096 0.253954
vt 0.105056 0.260103
vt 0.103525 0.243807
vt 0.106813 0.247620
vt 0.104239 0.232861
vt 0.107692 0.234155
vt 0.104239 0.221650
vt 0.107692 0.220364
vt 0.103525 0.210705
vt 0.106813 0.206899
vt 0.102096 0.200557
vt 0.105056 0.194415
vt 0.099953 0.191739
vt 0.102419 0.183567
vt 0.097096 0.184782
vt 0.098904 0.175009
vt 0.093524 0.180218
vt 0.094511 0.169394
vt 0.111199 0.413180
vt 0.130660 0.413180
vt 0.111199 0.405660
vt 0.130660 0.405660
vt 0.111199 0.396585
vt 0.130660 0.396585
vt 0.111199 0.386337
vt 0.130660 0.386337
vt 0.111199 0.375368
vt 0.130660 0.375368
vt 0.111199 0.364157
vt 0.130660 0.364157
vt 0.111199 0.353189
vt 0.130660 0.353189
vt 0.111199 0.342941
vt 0.130660 0.342941
vt 0.111199 0.333866
vt 0.130660 0.333866
vt 0.111199 0.326345
vt 0.130660 0.326345
vt 0.111199 0.320549
vt 0.130660 0.320549
vt 0.079725 0.175009
vt 0.077916 0.184789
vt 0.083240 0.183567
vt 0.080773 0.191746
vt 0.085876 0.194415
vt 0.082916 0.200564
vt 0.087633 0.206899
vt 0.084345 0.210712
vt 0.088512 0.220364
vt 0.085059 0.221657
vt 0.088512 0.234155
vt 0.085059 0.232869
vt 0.087633 0.247620
vt 0.084345 0.243814
vt 0.085876 0.260103
vt 0.082916 0.253961
vt 0.083240 0.270951
vt 0.080773 0.262780
vt 0.079725 0.279510
vt 0.077916 0.269737
vt 0.075331 0.285125
vt 0.074344 0.274301
vt 0.976364 0.941677
vt 0.976364 0.938002
vt 0.956903 0.938002
vt 0.956903 0.941677
vt 0.068617 0.388095
vt 0.066383 0.388095
vt 0.066383 0.411870
vt 0.068617 0.411870
vt 0.016122 0.325644
vt 0.013964 0.312286
vt 0.013964 0.436365
vt 0.016122 0.423000
vt 0.092020 0.220665
vt 0.094253 0.220665
vt 0.094253 0.196891
vt 0.092020 0.196891
vt 0.016122 0.314443
vt 0.035582 0.434208
vt 0.037739 0.436365
vt 0.035582 0.423000
vt 0.035582 0.314443
vt 0.037739 0.312286
vt 0.016122 0.434208
vt 0.035582 0.325644
vt 0.134167 0.291456
vt 0.136401 0.291456
vt 0.136401 0.167377
vt 0.134167 0.167377
vt 0.134167 0.436365
vt 0.136401 0.436365
vt 0.136401 0.312286
vt 0.134167 0.312286
vt 0.066384 0.323494
vt 0.070058 0.323494
vt 0.070058 0.312286
vt 0.066383 0.312286
vt 0.089238 0.432050
vt 0.094511 0.430033
vt 0.093524 0.419203
vt 0.089238 0.420842
vt 0.976364 0.932357
vt 0.956903 0.932357
vt 0.085563 0.323487
vt 0.089238 0.323487
vt 0.089238 0.312286
vt 0.085563 0.312286
vt 0.111199 0.167377
vt 0.111199 0.171052
vt 0.130660 0.171052
vt 0.130660 0.167377
vt 0.956903 0.801954
vt 0.956903 0.805629
vt 0.976364 0.805629
vt 0.976364 0.801954
vt 0.066384 0.432050
vt 0.070058 0.432050
vt 0.070058 0.420849
vt 0.066384 0.420849
vt 0.130660 0.282331
vt 0.130660 0.278656
vt 0.111199 0.278656
vt 0.111199 0.282331
vt 0.085563 0.432050
vt 0.085563 0.420842
vt 0.130660 0.274067
vt 0.111199 0.274067
vt 0.074344 0.325133
vt 0.075331 0.314303
vt 0.976364 0.925227
vt 0.956903 0.925227
vt 0.976364 0.915975
vt 0.956903 0.915975
vt 0.976364 0.904811
vt 0.956903 0.904811
vt 0.976364 0.892205
vt 0.956903 0.892205
vt 0.976364 0.878711
vt 0.956903 0.878711
vt 0.976364 0.864920
vt 0.956903 0.864920
vt 0.976364 0.851426
vt 0.956903 0.851426
vt 0.976364 0.838820
vt 0.956903 0.838820
vt 0.976364 0.827656
vt 0.956903 0.827656
vt 0.976364 0.818404
vt 0.956903 0.818404
vt 0.976364 0.811274
vt 0.956903 0.811274
vt 0.098904 0.424419
vt 0.097096 0.414638
vt 0.102419 0.415860
vt 0.099953 0.407681
vt 0.105056 0.405012
vt 0.102096 0.398863
vt 0.106813 0.392529
vt 0.103525 0.388715
vt 0.107692 0.379064
vt 0.104239 0.377770
vt 0.107692 0.365272
vt 0.104239 0.366559
vt 0.106813 0.351808
vt 0.103525 0.355614
vt 0.105056 0.339324
vt 0.102096 0.345466
vt 0.102419 0.328476
vt 0.099953 0.336648
vt 0.098904 0.319918
vt 0.097096 0.329691
vt 0.094511 0.314303
vt 0.093524 0.325126
vt 0.130660 0.268272
vt 0.111199 0.268272
vt 0.130660 0.260751
vt 0.111199 0.260751
vt 0.130660 0.251676
vt 0.111199 0.251676
vt 0.130660 0.241428
vt 0.111199 0.241428
vt 0.130660 0.230460
vt 0.111199 0.230460
vt 0.130660 0.219249
vt 0.111199 0.219249
vt 0.130660 0.208280
vt 0.111199 0.208280
vt 0.130660 0.198032
vt 0.111199 0.198032
vt 0.130660 0.188957
vt 0.111199 0.188957
vt 0.130660 0.181436
vt 0.111199 0.181436
vt 0.130660 0.175641
vt 0.111199 0.175641
vt 0.077916 0.329698
vt 0.079724 0.319917
vt 0.080773 0.336655
vt 0.083239 0.328476
vt 0.082916 0.345473
vt 0.085876 0.339324
vt 0.084345 0.355621
vt 0.087633 0.351807
vt 0.085059 0.366566
vt 0.088512 0.365272
vt 0.085059 0.377777
vt 0.088512 0.379064
vt 0.084345 0.388722
vt 0.087633 0.392529
vt 0.082916 0.398870
vt 0.085876 0.405012
vt 0.080773 0.407688
vt 0.083240 0.415860
vt 0.077916 0.414645
vt 0.079725 0.424418
vt 0.074344 0.419210
vt 0.075331 0.430033
s 1
usemtl Desk
f 73/205/7 75/206/7 90/207/8 89/208/8
f 69/209/7 71/210/7 79/211/7 77/212/7
f 84/213/9 83/214/9 79/215/9 80/216/9
f 72/217/10 70/218/10 78/219/10 80/220/10
f 76/221/9 84/213/9 80/216/9
f 73/222/9 81/223/9 77/224/9
f 74/225/9 76/221/9 80/216/9 78/226/9
f 75/227/9 73/222/9 77/224/9 79/215/9
f 83/214/9 75/227/9 79/215/9
f 82/228/9 74/225/9 78/226/9
f 70/229/11 69/230/11 77/231/11 78/232/11
f 71/233/12 72/234/12 80/235/12 79/236/12
f 81/223/9 82/228/9 78/226/9 77/224/9
f 81/237/11 73/238/11 89/239/11 91/240/11
f 82/228/9 81/223/9 83/214/9 84/213/9
f 90/241/12 92/242/12 128/243/12 116/244/12
f 89/208/8 90/207/8 116/245/13 93/246/13
f 84/247/12 76/248/12 88/249/12 87/250/12
f 82/251/7 84/252/7 87/253/14 85/254/14
f 76/255/10 74/256/10 86/257/15 88/258/15
f 74/259/11 82/260/11 85/261/11 86/262/11
f 83/263/10 81/264/10 91/265/16 92/266/16
f 75/267/12 83/268/12 92/242/12 90/241/12
f 92/266/16 91/265/16 140/269/17 128/270/17
f 91/240/11 89/239/11 93/271/11 140/272/11
f 93/246/13 116/245/13 115/273/18 94/274/18
f 94/274/18 115/273/18 114/275/19 95/276/19
f 95/276/19 114/275/19 113/277/20 96/278/20
f 96/278/20 113/277/20 112/279/21 97/280/21
f 97/280/21 112/279/21 111/281/22 98/282/22
f 98/282/22 111/281/22 110/283/23 99/284/23
f 99/284/23 110/283/23 109/285/24 100/286/24
f 100/286/24 109/285/24 108/287/25 101/288/25
f 101/288/25 108/287/25 107/289/26 102/290/26
f 102/290/26 107/289/26 106/291/27 103/292/27
f 103/292/27 106/291/27 105/293/28 104/294/28
f 104/294/28 105/293/28 88/258/15 86/257/15
f 116/244/12 128/243/12 127/295/12 115/296/12
f 115/296/12 127/295/12 126/297/12 114/298/12
f 114/298/12 126/297/12 125/299/12 113/300/12
f 113/300/12 125/299/12 124/301/12 112/302/12
f 112/302/12 124/301/12 123/303/12 111/304/12
f 111/304/12 123/303/12 122/305/12 110/306/12
f 110/306/12 122/305/12 121/307/12 109/308/12
f 109/308/12 121/307/12 120/309/12 108/310/12
f 108/310/12 120/309/12 119/311/12 107/312/12
f 107/312/12 119/311/12 118/313/12 106/314/12
f 106/314/12 118/313/12 117/315/12 105/316/12
f 105/316/12 117/315/12 87/250/12 88/249/12
f 128/270/17 140/269/17 139/317/29 127/318/29
f 127/318/29 139/317/29 138/319/30 126/320/30
f 126/320/30 138/319/30 137/321/31 125/322/31
f 125/322/31 137/321/31 136/323/32 124/324/32
f 124/324/32 136/323/32 135/325/33 123/326/33
f 123/326/33 135/325/33 134/327/34 122/328/34
f 122/328/34 134/327/34 133/329/35 121/330/35
f 121/330/35 133/329/35 132/331/36 120/332/36
f 120/332/36 132/331/36 131/333/37 119/334/37
f 119/334/37 131/333/37 130/335/38 118/336/38
f 118/336/38 130/335/38 129/337/39 117/338/39
f 117/338/39 129/337/39 85/254/14 87/253/14
f 140/272/11 93/271/11 94/339/11 139/340/11
f 139/340/11 94/339/11 95/341/11 138/342/11
f 138/342/11 95/341/11 96/343/11 137/344/11
f 137/344/11 96/343/11 97/345/11 136/346/11
f 136/346/11 97/345/11 98/347/11 135/348/11
f 135/348/11 98/347/11 99/349/11 134/350/11
f 134/350/11 99/349/11 100/351/11 133/352/11
f 133/352/11 100/351/11 101/353/11 132/354/11
f 132/354/11 101/353/11 102/355/11 131/356/11
f 131/356/11 102/355/11 103/357/11 130/358/11
f 130/358/11 103/357/11 104/359/11 129/360/11
f 129/360/11 104/359/11 86/262/11 85/261/11
f 145/361/10 161/362/15 162/363/15 147/364/10
f 141/365/10 149/366/10 151/367/10 143/368/10
f 156/369/9 152/370/9 151/371/9 155/372/9
f 144/373/7 152/374/7 150/375/7 142/376/7
f 148/377/9 152/370/9 156/369/9
f 145/378/9 149/379/9 153/380/9
f 146/381/9 150/382/9 152/370/9 148/377/9
f 147/383/9 151/371/9 149/379/9 145/378/9
f 155/372/9 151/371/9 147/383/9
f 154/384/9 150/382/9 146/381/9
f 142/385/11 150/386/11 149/387/11 141/388/11
f 143/389/12 151/390/12 152/391/12 144/392/12
f 153/380/9 149/379/9 150/382/9 154/384/9
f 153/393/11 163/394/11 161/395/11 145/396/11
f 154/384/9 156/369/9 155/372/9 153/380/9
f 162/397/12 188/398/12 200/399/12 164/400/12
f 161/362/15 165/401/28 188/402/28 162/363/15
f 156/403/12 159/404/12 160/405/12 148/406/12
f 154/407/10 157/408/16 159/409/16 156/410/10
f 148/411/7 160/412/8 158/413/8 146/414/7
f 146/415/11 158/416/11 157/417/11 154/418/11
f 155/419/7 164/420/14 163/421/14 153/422/7
f 147/423/12 162/397/12 164/400/12 155/424/12
f 164/420/14 200/425/39 212/426/39 163/421/14
f 163/394/11 212/427/11 165/428/11 161/395/11
f 165/401/28 166/429/27 187/430/27 188/402/28
f 166/429/27 167/431/26 186/432/26 187/430/27
f 167/431/26 168/433/25 185/434/25 186/432/26
f 168/433/25 169/435/24 184/436/24 185/434/25
f 169/435/24 170/437/23 183/438/23 184/436/24
f 170/437/23 171/439/22 182/440/22 183/438/23
f 171/439/22 172/441/21 181/442/21 182/440/22
f 172/441/21 173/443/20 180/444/20 181/442/21
f 173/443/20 174/445/19 179/446/19 180/444/20
f 174/445/19 175/447/18 178/448/18 179/446/19
f 175/447/18 176/449/13 177/450/13 178/448/18
f 176/449/13 158/413/8 160/412/8 177/450/13
f 188/398/12 187/451/12 199/452/12 200/399/12
f 187/451/12 186/453/12 198/454/12 199/452/12
f 186/453/12 185/455/12 197/456/12 198/454/12
f 185/455/12 184/457/12 196/458/12 197/456/12
f 184/457/12 183/459/12 195/460/12 196/458/12
f 183/459/12 182/461/12 194/462/12 195/460/12
f 182/461/12 181/463/12 193/464/12 194/462/12
f 181/463/12 180/465/12 192/466/12 193/464/12
f 180/465/12 179/467/12 191/468/12 192/466/12
f 179/467/12 178/469/12 190/470/12 191/468/12
f 178/469/12 177/471/12 189/472/12 190/470/12
f 177/471/12 160/405/12 159/404/12 189/472/12
f 200/425/39 199/473/38 211/474/38 212/426/39
f 199/473/38 198/475/37 210/476/37 211/474/38
f 198/475/37 197/477/36 209/478/36 210/476/37
f 197/477/36 196/479/35 208/480/35 209/478/36
f 196/479/35 195/481/34 207/482/34 208/480/35
f 195/481/34 194/483/33 206/484/33 207/482/34
f 194/483/33 193/485/32 205/486/32 206/484/33
f 193/485/32 192/487/31 204/488/31 205/486/32
f 192/487/31 191/489/30 203/490/30 204/488/31
f 191/489/30 190/491/29 202/492/29 203/490/30
f 190/491/29 189/493/17 201/494/17 202/492/29
f 189/493/17 159/409/16 157/408/16 201/494/17
f 212/427/11 211/495/11 166/496/11 165/428/11
f 211/495/11 210/497/11 167/498/11 166/496/11
f 210/497/11 209/499/11 168/500/11 167/498/11
f 209/499/11 208/501/11 169/502/11 168/500/11
f 208/501/11 207/503/11 170/504/11 169/502/11
f 207/503/11 206/505/11 171/506/11 170/504/11
f 206/505/11 205/507/11 172/508/11 171/506/11
f 205/507/11 204/509/11 173/510/11 172/508/11
f 204/509/11 203/511/11 174/512/11 173/510/11
f 203/511/11 202/513/11 175/514/11 174/512/11
f 202/513/11 201/515/11 176/516/11 175/514/11
f 201/515/11 157/417/11 158/416/11 176/516/11
