# Blender 4.3.2
# www.blender.org
mtllib Cardboard Box Game Res.mtl
o Cardboard_Box_LR
v 0.441880 0.602873 -0.280108
v 0.441880 0.602873 0.280108
v -0.441880 0.602873 -0.280108
v -0.441880 0.602873 0.280108
v 0.441880 0.037590 -0.280108
v -0.441880 0.037590 -0.269812
v -0.433126 0.037590 -0.269812
v -0.441880 0.037590 -0.280108
v 0.430391 0.037590 -0.269812
v 0.441880 0.037590 -0.269812
v 0.441880 0.037590 -0.265818
v 0.441880 0.037590 0.265818
v -0.441880 0.037590 -0.265818
v -0.441880 0.037590 0.265818
v -0.433126 0.037590 -0.265818
v 0.441880 0.037590 0.269812
v 0.441880 0.037590 0.280108
v 0.430391 0.037590 0.269812
v -0.433126 0.037590 0.269812
v -0.441880 0.037590 0.269812
v -0.441880 0.037590 0.280108
v 0.441880 0.013414 0.562984
v 0.441880 0.000855 0.562984
v -0.441880 0.000855 -0.562984
v 0.441880 0.000855 -0.562984
v -0.441880 0.000855 0.562984
v 0.441880 0.013414 -0.562984
v -0.441880 0.013414 -0.562984
v -0.441880 0.013414 0.562984
v -0.667177 0.000855 -0.265818
v -0.667177 0.000855 0.265818
v 0.667177 0.000855 0.265818
v 0.667177 0.000855 -0.265818
v 0.667177 0.013414 -0.265818
v -0.667177 0.013414 -0.265818
v 0.667177 0.013414 0.265818
v -0.667177 0.013414 0.265818
v -0.433126 0.125554 0.269812
v 0.430391 0.125554 0.269812
v 0.430391 0.125554 -0.269812
v -0.433126 0.125554 -0.269812
v -0.441880 0.024273 -0.279010
v 0.441880 0.024273 -0.279010
v -0.441880 0.024273 0.279010
v 0.440492 0.024000 -0.265818
v 0.430391 0.037590 -0.265818
v 0.433350 0.028408 -0.265818
v 0.430391 0.037590 0.265818
v 0.440492 0.024000 0.265818
v 0.433350 0.028408 0.265818
v -0.441880 0.034260 0.269812
v -0.441880 0.027512 0.272506
v 0.441880 0.024273 0.279010
v 0.441880 0.034260 0.269812
v 0.441880 0.027512 0.272506
v -0.440504 0.024269 -0.265818
v -0.435287 0.028486 -0.265818
v -0.440504 0.024269 0.265818
v -0.433126 0.037590 0.265818
v -0.435287 0.028486 0.265818
v 0.441880 0.034260 -0.269812
v 0.441880 0.027512 -0.272506
v -0.441880 0.034260 -0.269812
v -0.441880 0.027512 -0.272506
vn -0.0000 -0.9966 -0.0822
vn -0.0000 -0.9632 -0.2688
vn -1.0000 -0.0000 -0.0000
vn -0.0000 -0.0000 1.0000
vn 1.0000 -0.0000 -0.0000
vn -0.0000 0.9964 0.0852
vn -0.0000 -0.0000 -1.0000
vn -0.0000 1.0000 -0.0000
vn -0.0000 0.9964 -0.0852
vn 0.9970 -0.0774 -0.0000
vn -0.0000 -0.1888 -0.9820
vn -0.0000 -0.9966 0.0822
vn -0.0000 -0.9632 0.2688
vn -0.0000 -0.6774 -0.7356
vn 0.3815 -0.9244 -0.0000
vn 0.1027 -0.9947 -0.0000
vn -0.0000 -1.0000 -0.0000
vn -0.3215 -0.9469 -0.0000
vn -0.1016 -0.9948 -0.0000
vn -0.9946 -0.1033 -0.0000
vn -0.1067 0.9943 -0.0000
vn 0.1067 0.9943 -0.0000
vn -0.0000 -0.6774 0.7356
vn -0.0000 -0.1888 0.9820
vn -0.7870 -0.6169 -0.0000
vn 0.8462 -0.5329 -0.0000
vt 0.781528 0.381424
vt 0.781528 0.001953
vt 0.903876 0.001953
vt 0.903876 0.381424
vt 0.018030 0.129551
vt 0.018030 0.127836
vt 0.018030 0.123415
vt 0.260752 0.123415
vt 0.007820 0.130845
vt 0.007820 0.228685
vt 0.002455 0.228137
vt 0.001954 0.130845
vt 0.510544 0.123415
vt 0.510544 0.127836
vt 0.510544 0.129551
vt 0.267822 0.123415
vt 0.001953 0.997671
vt 0.001953 0.875766
vt 0.381424 0.875766
vt 0.381424 0.997671
vt 0.007819 0.242590
vt 0.007318 0.339882
vt 0.001953 0.340430
vt 0.001953 0.242590
vt 0.018030 0.363961
vt 0.012312 0.363490
vt 0.013703 0.360697
vt 0.510544 0.357826
vt 0.267822 0.363961
vt 0.411351 0.733040
vt 0.411351 0.492493
vt 0.790821 0.492493
vt 0.790821 0.733040
vt 0.774458 0.025655
vt 0.774458 0.405125
vt 0.531736 0.405125
vt 0.531736 0.025655
vt 0.797891 0.767964
vt 0.797891 0.388494
vt 0.919796 0.388493
vt 0.919796 0.767964
vt 0.930884 0.996332
vt 0.930883 0.768057
vt 0.968654 0.766342
vt 0.968654 0.998047
vt 0.918615 0.376491
vt 0.918615 0.381424
vt 0.917185 0.381424
vt 0.759272 0.868697
vt 0.379802 0.868697
vt 0.379802 0.746349
vt 0.759272 0.746349
vt 0.510544 0.359541
vt 0.510544 0.363961
vt 0.404240 0.115860
vt 0.024770 0.115860
vt 0.024770 0.110467
vt 0.404240 0.110467
vt 0.024811 0.613754
vt 0.024811 0.371032
vt 0.404281 0.371032
vt 0.404281 0.613754
vt 0.906995 0.001953
vt 0.910115 0.001953
vt 0.910115 0.381424
vt 0.906995 0.381424
vt 0.259049 0.099800
vt 0.259049 0.001953
vt 0.487324 0.001953
vt 0.487324 0.099800
vt 0.930884 0.998047
vt 0.964636 0.754339
vt 0.926866 0.754339
vt 0.926866 0.383560
vt 0.964636 0.383560
vt 0.001953 0.620824
vt 0.372732 0.620824
vt 0.372732 0.852528
vt 0.001953 0.852528
vt 0.012312 0.123886
vt 0.002257 0.001953
vt 0.007650 0.001953
vt 0.251979 0.005557
vt 0.251979 0.103397
vt 0.023704 0.103397
vt 0.023704 0.005557
vt 0.516262 0.363490
vt 0.526317 0.485423
vt 0.520925 0.485423
vt 0.001953 0.590724
vt 0.001953 0.492877
vt 0.007317 0.493431
vt 0.007703 0.590724
vt 0.013703 0.126679
vt 0.514872 0.360697
vt 0.007317 0.594463
vt 0.003524 0.593138
vt 0.379803 0.719055
vt 0.380189 0.621762
vt 0.385553 0.621208
vt 0.385553 0.719055
vt 0.516262 0.123887
vt 0.514872 0.126679
vt 0.007649 0.485423
vt 0.002257 0.485423
vt 0.918615 0.005712
vt 0.956385 0.005712
vt 0.956385 0.376491
vt 0.003668 0.352812
vt 0.001953 0.352812
vt 0.001953 0.347879
vt 0.003668 0.347879
vt 0.003668 0.359882
vt 0.003668 0.363641
vt 0.001953 0.363641
vt 0.001953 0.359882
vt 0.003668 0.108477
vt 0.003668 0.113410
vt 0.001953 0.113410
vt 0.001953 0.108477
vt 0.001953 0.370711
vt 0.003668 0.370711
vt 0.003668 0.374469
vt 0.001953 0.374469
vt 0.760757 0.449965
vt 0.532482 0.449965
vt 0.530767 0.412195
vt 0.762472 0.412195
vt 0.388493 0.985523
vt 0.388493 0.980130
vt 0.767964 0.980130
vt 0.767964 0.985523
vt 0.230228 0.864991
vt 0.001953 0.864991
vt 0.001953 0.859598
vt 0.230228 0.859598
vt 0.616768 0.997985
vt 0.388493 0.997985
vt 0.388493 0.992593
vt 0.616768 0.992593
vt 0.623838 0.875766
vt 0.852113 0.875766
vt 0.852113 0.973060
vt 0.623838 0.973060
vt 0.616768 0.973060
vt 0.388493 0.973060
vt 0.388493 0.875766
vt 0.616768 0.875766
vt 0.511974 0.127836
vt 0.520925 0.001953
vt 0.526317 0.001953
vt 0.918615 0.001953
vt 0.917185 0.001953
vt 0.759272 0.743229
vt 0.379802 0.743229
vt 0.759272 0.740110
vt 0.379802 0.740110
vt 0.016601 0.127836
vt 0.383982 0.721469
vt 0.006248 0.127602
vt 0.023704 0.001953
vt 0.251979 0.001953
vt 0.760757 0.454107
vt 0.532482 0.454107
vt 0.003524 0.239347
vt 0.002455 0.125937
vt 0.926866 0.996332
vt 0.926866 0.768057
vt 0.487324 0.102681
vt 0.259049 0.102681
vt 0.930883 0.766342
vt 0.966066 0.379802
vt 0.964636 0.379802
vt 0.530767 0.449965
vt 0.380189 0.722793
vt 0.016600 0.359541
vt 0.018030 0.359541
vt 0.511974 0.359541
vt 0.007318 0.237683
vt 0.018030 0.357826
vt 0.260752 0.363962
vt 0.762472 0.449965
vt 0.966066 0.759272
vt 0.964636 0.759272
s 1
usemtl Cardboard_Box
f 23/1/1 26/2/1 44/3/2 53/4/2
f 14/5/3 20/6/3 21/7/3 4/8/3
f 49/9/4 32/10/4 36/11/4 12/12/4
f 17/13/5 16/14/5 12/15/5 2/16/5
f 21/17/6 29/18/6 22/19/6 17/20/6
f 11/21/7 34/22/7 33/23/7 45/24/7
f 8/25/3 42/26/3 64/27/3
f 11/28/5 1/29/5 2/16/5 12/15/5
f 3/30/8 4/31/8 2/32/8 1/33/8
f 21/34/4 17/35/4 2/36/4 4/37/4
f 8/38/9 5/39/9 27/40/9 28/41/9
f 59/42/10 15/43/10 41/44/5 38/45/5
f 18/46/7 16/47/7 54/48/11
f 24/49/12 25/50/12 43/51/13 42/52/13
f 10/53/5 5/54/5 1/29/5 11/28/5
f 28/55/7 27/56/7 25/57/7 24/58/7
f 8/59/7 3/60/7 1/61/7 5/62/7
f 52/63/14 51/64/11 54/65/11 55/66/14
f 58/67/15 31/68/16 30/69/16 56/70/15
f 19/71/5 59/42/10 38/45/5
f 9/72/4 40/73/4 41/74/4 7/75/4
f 41/76/17 40/77/17 39/78/17 38/79/17
f 44/80/3 26/81/3 29/82/3 21/7/3
f 45/83/18 33/84/19 32/85/19 49/86/18
f 43/87/5 25/88/5 27/89/5 5/54/5
f 56/90/7 30/91/7 35/92/7 13/93/7
f 52/94/3 44/80/3 21/7/3
f 44/3/2 52/63/14 55/66/14 53/4/2
f 62/95/5 43/87/5 5/54/5
f 15/96/7 57/97/7 56/90/7 13/93/7
f 14/98/4 37/99/4 31/100/4 58/101/4
f 17/13/5 53/102/5 55/103/5
f 8/25/3 28/104/3 24/105/3 42/26/3
f 19/106/7 38/107/7 39/108/7 18/46/7
f 46/109/17 9/110/17 10/111/17 11/112/17
f 15/113/17 13/114/17 6/115/17 7/116/17
f 48/117/17 12/118/17 16/119/17 18/120/17
f 59/121/17 19/122/17 20/123/17 14/124/17
f 46/125/20 48/126/20 39/127/3 40/128/3
f 29/129/4 26/130/4 23/131/4 22/132/4
f 34/133/5 36/134/5 32/135/5 33/136/5
f 37/137/3 35/138/3 30/139/3 31/140/3
f 14/141/21 13/142/21 35/143/21 37/144/21
f 11/145/22 12/146/22 36/147/22 34/148/22
f 16/14/5 17/13/5 54/149/5
f 54/149/5 17/13/5 55/103/5
f 17/13/5 22/150/5 23/151/5 53/102/5
f 20/152/7 19/106/7 51/153/11
f 64/154/23 42/52/13 43/51/13 62/155/23
f 63/156/24 64/154/23 62/155/23 61/157/24
f 20/6/3 51/158/3 21/7/3
f 14/98/4 58/101/4 60/159/4
f 50/160/4 49/9/4 12/12/4
f 45/83/18 49/86/18 50/161/25 47/162/25
f 47/163/25 50/164/25 48/126/20 46/125/20
f 11/21/7 45/24/7 47/165/7
f 19/106/7 18/46/7 54/48/11 51/153/11
f 48/166/4 50/160/4 12/12/4
f 15/43/10 59/42/10 60/167/26 57/168/26
f 57/169/26 60/170/26 58/67/15 56/70/15
f 15/43/10 7/171/5 41/44/5
f 63/172/24 7/75/4 6/173/4
f 48/126/20 18/174/3 39/127/3
f 59/175/4 14/98/4 60/159/4
f 51/158/3 52/94/3 21/7/3
f 8/25/3 64/27/3 63/176/3
f 6/177/3 8/25/3 63/176/3
f 10/53/5 61/178/5 5/54/5
f 61/178/5 62/95/5 5/54/5
f 46/179/7 11/21/7 47/165/7
f 13/180/3 14/5/3 4/8/3 3/181/3
f 6/177/3 13/180/3 3/181/3 8/25/3
f 9/182/3 46/125/20 40/128/3
f 9/72/4 7/75/4 63/172/24 61/183/24
f 10/184/4 9/72/4 61/183/24
