# Blender 4.3.2
# www.blender.org
mtllib Mattress Game Res.mtl
o Mattress_LR
v 1.150193 0.153683 -0.505674
v 1.157026 0.102456 -0.508678
v 1.150193 0.051228 -0.505674
v 1.116370 0.051228 -0.587330
v 1.123002 0.102456 -0.590819
v 1.116370 0.153683 -0.587330
v 1.034714 0.051228 -0.621153
v 1.040861 0.102456 -0.624843
v 1.034714 0.153683 -0.621153
v -1.034714 0.051228 0.621153
v -1.040861 0.102456 0.624843
v -1.034714 0.153683 0.621153
v -1.116370 0.153683 0.587330
v -1.123002 0.102456 0.590819
v -1.116370 0.051228 0.587330
v -1.150193 0.153683 0.505674
v -1.157026 0.102456 0.508678
v -1.150193 0.051228 0.505674
v 1.034714 0.153683 0.621153
v 1.040861 0.102456 0.624843
v 1.034714 0.051228 0.621153
v 1.116370 0.051228 0.587330
v 1.123002 0.102456 0.590819
v 1.116370 0.153683 0.587330
v 1.150193 0.051228 0.505674
v 1.157026 0.102456 0.508678
v 1.150193 0.153683 0.505674
v -1.034714 0.153683 -0.621153
v -1.040861 0.102456 -0.624843
v -1.034714 0.051228 -0.621153
v -1.116370 0.051228 -0.587330
v -1.123002 0.102456 -0.590819
v -1.116370 0.153683 -0.587330
v -1.150193 0.051228 -0.505674
v -1.157026 0.102456 -0.508678
v -1.150193 0.153683 -0.505674
v 1.108943 0.213159 -0.494727
v 1.144433 0.183762 -0.503142
v 1.131707 0.204549 -0.499652
v 1.018529 0.213159 -0.585141
v 1.029537 0.183739 -0.618045
v 1.024214 0.204542 -0.607147
v 1.082461 0.213159 -0.558659
v 1.110781 0.183753 -0.584390
v 1.100223 0.204546 -0.575663
v 1.018529 -0.008248 -0.585141
v 1.029537 0.021172 -0.618045
v 1.024214 0.000369 -0.607147
v 1.108943 -0.008248 -0.494727
v 1.144433 0.021149 -0.503142
v 1.131707 0.000362 -0.499652
v 1.082461 -0.008248 -0.558659
v 1.110781 0.021158 -0.584390
v 1.100223 0.000365 -0.575663
v 1.018529 0.213159 0.585141
v 1.029537 0.183739 0.618045
v 1.024214 0.204542 0.607147
v 1.108943 0.213159 0.494727
v 1.144433 0.183762 0.503142
v 1.131707 0.204549 0.499652
v 1.082461 0.213159 0.558659
v 1.110781 0.183753 0.584390
v 1.100223 0.204546 0.575663
v 1.108943 -0.008248 0.494727
v 1.144433 0.021149 0.503142
v 1.131707 0.000362 0.499652
v 1.018529 -0.008248 0.585141
v 1.029537 0.021172 0.618045
v 1.024214 0.000369 0.607147
v 1.082461 -0.008248 0.558659
v 1.110781 0.021158 0.584390
v 1.100223 0.000365 0.575663
v -1.018529 0.213159 -0.585141
v -1.029537 0.183739 -0.618045
v -1.024214 0.204542 -0.607147
v -1.108943 0.213159 -0.494727
v -1.144433 0.183762 -0.503142
v -1.131707 0.204549 -0.499652
v -1.082461 0.213159 -0.558659
v -1.110781 0.183753 -0.584390
v -1.100223 0.204546 -0.575663
v -1.108943 -0.008248 -0.494727
v -1.144433 0.021149 -0.503142
v -1.131707 0.000362 -0.499652
v -1.018529 -0.008248 -0.585141
v -1.029537 0.021172 -0.618045
v -1.024214 0.000369 -0.607147
v -1.082461 -0.008248 -0.558659
v -1.110781 0.021158 -0.584390
v -1.100223 0.000365 -0.575663
v -1.108943 0.213159 0.494727
v -1.144433 0.183762 0.503142
v -1.131707 0.204549 0.499652
v -1.018529 0.213159 0.585141
v -1.029537 0.183739 0.618045
v -1.024214 0.204542 0.607147
v -1.082461 0.213159 0.558659
v -1.110781 0.183753 0.584390
v -1.100223 0.204546 0.575663
v -1.018529 -0.008248 0.585141
v -1.029537 0.021172 0.618045
v -1.024214 0.000369 0.607147
v -1.108943 -0.008248 0.494727
v -1.144433 0.021149 0.503142
v -1.131707 0.000362 0.499652
v -1.082461 -0.008248 0.558659
v -1.110781 0.021158 0.584390
v -1.100223 0.000365 0.575663
v 1.150193 0.051228 -0.415231
v 1.157026 0.102456 -0.415231
v 1.150193 0.153683 -0.415231
v -1.150193 0.051228 -0.415231
v -1.157026 0.102456 -0.415231
v -1.150193 0.153683 -0.415231
v 1.108943 -0.008248 -0.415231
v 1.131707 0.000362 -0.415231
v 1.144433 0.021149 -0.415231
v 1.108943 0.213159 -0.415231
v 1.131707 0.204549 -0.415231
v 1.144433 0.183762 -0.415231
v -1.144433 0.183762 -0.415231
v -1.131707 0.204549 -0.415231
v -1.108943 0.213159 -0.415231
v -1.144433 0.021149 -0.415231
v -1.131707 0.000362 -0.415231
v -1.108943 -0.008248 -0.415231
v 1.150193 0.051228 0.413577
v 1.157026 0.102456 0.413577
v 1.150193 0.153683 0.413577
v 1.131707 0.000362 0.413577
v 1.144433 0.021149 0.413577
v 1.108943 0.213159 0.413577
v -1.144433 0.183762 0.413577
v -1.131707 0.000362 0.413577
v -1.108943 -0.008248 0.413577
v -1.150193 0.051228 0.413577
v -1.157026 0.102456 0.413577
v -1.150193 0.153683 0.413577
v 1.108943 -0.008248 0.413577
v 1.131707 0.204549 0.413577
v 1.144433 0.183762 0.413577
v -1.131707 0.204549 0.413577
v -1.108943 0.213159 0.413577
v -1.144433 0.021149 0.413577
v -1.150193 0.051228 0.188900
v -1.157026 0.102456 0.188900
v -1.150193 0.153683 0.188900
v 1.089033 -0.008248 0.188900
v 1.111798 0.204549 0.188900
v 1.124524 0.183762 0.188900
v -1.131707 0.204549 0.188900
v -1.108943 0.213159 0.188900
v -1.144433 0.021149 0.188900
v 1.130284 0.051228 0.188900
v 1.137116 0.102456 0.188900
v 1.130284 0.153683 0.188900
v 1.111798 0.000362 0.188900
v 1.124524 0.021149 0.188900
v 1.089033 0.213159 0.188900
v -1.144433 0.183762 0.188900
v -1.131707 0.000362 0.188900
v -1.108943 -0.008248 0.188900
v -1.112798 0.051228 -0.128123
v -1.119631 0.102456 -0.128123
v -1.112798 0.153683 -0.128123
v 1.108943 -0.008248 -0.128123
v 1.131707 0.204549 -0.128123
v 1.144433 0.183762 -0.128123
v -1.094312 0.204549 -0.128123
v -1.071548 0.213159 -0.128123
v -1.107039 0.021149 -0.128123
v 1.150193 0.051228 -0.128123
v 1.157026 0.102456 -0.128123
v 1.150193 0.153683 -0.128123
v 1.131707 0.000362 -0.128123
v 1.144433 0.021149 -0.128123
v 1.108943 0.213159 -0.128123
v -1.107039 0.183762 -0.128123
v -1.094312 0.000362 -0.128123
v -1.071548 -0.008248 -0.128123
vn 0.9664 0.1700 -0.1928
vn 0.9800 -0.0000 -0.1988
vn 0.9664 -0.1700 -0.1928
vn 0.6978 -0.1665 -0.6966
vn 0.7141 -0.0000 -0.7000
vn 0.6978 0.1665 -0.6966
vn 0.1959 -0.1141 -0.9740
vn 0.2074 -0.0000 -0.9783
vn 0.1959 0.1141 -0.9740
vn -0.1959 -0.1141 0.9740
vn -0.2074 -0.0000 0.9783
vn -0.1959 0.1141 0.9740
vn -0.6978 0.1665 0.6966
vn -0.7141 -0.0000 0.7000
vn -0.6978 -0.1665 0.6966
vn -0.9664 0.1700 0.1928
vn -0.9800 -0.0000 0.1988
vn -0.9664 -0.1700 0.1928
vn 0.1959 0.1141 0.9740
vn 0.2074 -0.0000 0.9783
vn 0.1959 -0.1141 0.9740
vn 0.6978 -0.1665 0.6966
vn 0.7141 -0.0000 0.7000
vn 0.6978 0.1665 0.6966
vn 0.9664 -0.1700 0.1928
vn 0.9800 -0.0000 0.1988
vn 0.9664 0.1700 0.1928
vn -0.1959 0.1141 -0.9740
vn -0.2074 -0.0000 -0.9783
vn -0.1959 -0.1141 -0.9740
vn -0.6978 -0.1665 -0.6966
vn -0.7141 -0.0000 -0.7000
vn -0.6978 0.1665 -0.6966
vn -0.9664 -0.1700 -0.1928
vn -0.9800 -0.0000 -0.1988
vn -0.9664 0.1700 -0.1928
vn 0.1936 0.9803 -0.0380
vn 0.9129 0.3661 -0.1804
vn 0.6399 0.7582 -0.1250
vn 0.0379 0.9794 -0.1986
vn 0.1820 0.3107 -0.9329
vn 0.1241 0.7371 -0.6643
vn 0.1458 0.9782 -0.1481
vn 0.6554 0.3638 -0.6619
vn 0.4620 0.7503 -0.4728
vn 0.0379 -0.9794 -0.1986
vn 0.1820 -0.3107 -0.9329
vn 0.1241 -0.7371 -0.6643
vn 0.1936 -0.9803 -0.0380
vn 0.9129 -0.3661 -0.1804
vn 0.6399 -0.7582 -0.1250
vn 0.1458 -0.9782 -0.1481
vn 0.6554 -0.3638 -0.6619
vn 0.4620 -0.7503 -0.4728
vn 0.0379 0.9794 0.1986
vn 0.1820 0.3107 0.9329
vn 0.1241 0.7371 0.6643
vn 0.1936 0.9803 0.0380
vn 0.9129 0.3661 0.1804
vn 0.6399 0.7582 0.1250
vn 0.1458 0.9782 0.1481
vn 0.6554 0.3638 0.6619
vn 0.4620 0.7503 0.4728
vn 0.1936 -0.9803 0.0380
vn 0.9129 -0.3661 0.1804
vn 0.6399 -0.7582 0.1250
vn 0.0379 -0.9794 0.1986
vn 0.1820 -0.3107 0.9329
vn 0.1241 -0.7371 0.6643
vn 0.1458 -0.9782 0.1481
vn 0.6554 -0.3638 0.6619
vn 0.4620 -0.7503 0.4728
vn -0.0379 0.9794 -0.1986
vn -0.1820 0.3107 -0.9329
vn -0.1241 0.7371 -0.6643
vn -0.1936 0.9803 -0.0380
vn -0.9129 0.3661 -0.1804
vn -0.6399 0.7582 -0.1250
vn -0.1458 0.9782 -0.1481
vn -0.6554 0.3638 -0.6619
vn -0.4620 0.7503 -0.4728
vn -0.1936 -0.9803 -0.0380
vn -0.9129 -0.3661 -0.1804
vn -0.6399 -0.7582 -0.1250
vn -0.0379 -0.9794 -0.1986
vn -0.1820 -0.3107 -0.9329
vn -0.1241 -0.7371 -0.6643
vn -0.1458 -0.9782 -0.1481
vn -0.6554 -0.3638 -0.6619
vn -0.4620 -0.7503 -0.4728
vn -0.1936 0.9803 0.0380
vn -0.9129 0.3661 0.1804
vn -0.6399 0.7582 0.1250
vn -0.0379 0.9794 0.1986
vn -0.1820 0.3107 0.9329
vn -0.1241 0.7371 0.6643
vn -0.1458 0.9782 0.1481
vn -0.6554 0.3638 0.6619
vn -0.4620 0.7503 0.4728
vn -0.0379 -0.9794 0.1986
vn -0.1820 -0.3107 0.9329
vn -0.1241 -0.7371 0.6643
vn -0.1936 -0.9803 0.0380
vn -0.9129 -0.3661 0.1804
vn -0.6399 -0.7582 0.1250
vn -0.1458 -0.9782 0.1481
vn -0.6554 -0.3638 0.6619
vn -0.4620 -0.7503 0.4728
vn 0.9871 -0.1602 -0.0000
vn 1.0000 -0.0000 -0.0000
vn 0.9871 0.1602 -0.0000
vn -0.9851 -0.1597 0.0638
vn -0.9979 -0.0000 0.0644
vn -0.9851 0.1597 0.0638
vn 0.1798 -0.9837 -0.0000
vn 0.6377 -0.7703 -0.0000
vn 0.9326 -0.3609 -0.0000
vn 0.1798 0.9837 -0.0000
vn 0.6377 0.7703 -0.0000
vn 0.9326 0.3609 -0.0000
vn -0.9318 0.3579 0.0601
vn -0.6447 0.7633 0.0420
vn -0.1869 0.9823 0.0126
vn -0.9318 -0.3579 0.0601
vn -0.6447 -0.7633 0.0420
vn -0.1869 -0.9823 0.0126
vn 0.9862 -0.1599 -0.0436
vn 0.9990 -0.0000 -0.0440
vn 0.9862 0.1599 -0.0436
vn 0.6427 -0.7656 -0.0285
vn 0.9324 -0.3590 -0.0411
vn 0.1847 0.9828 -0.0084
vn -0.9326 0.3609 -0.0000
vn -0.6377 -0.7703 -0.0000
vn -0.1798 -0.9837 -0.0000
vn -0.9871 -0.1602 -0.0000
vn -1.0000 -0.0000 -0.0000
vn -0.9871 0.1602 -0.0000
vn 0.1847 -0.9828 -0.0084
vn 0.6427 0.7656 -0.0285
vn 0.9324 0.3590 -0.0411
vn -0.6377 0.7703 -0.0000
vn -0.1798 0.9837 -0.0000
vn -0.9326 -0.3609 -0.0000
vn -0.9855 -0.1598 -0.0579
vn -0.9983 -0.0000 -0.0584
vn -0.9855 0.1598 -0.0579
vn 0.1714 -0.9852 -0.0021
vn 0.6283 0.7780 -0.0080
vn 0.9314 0.3638 -0.0120
vn -0.6442 0.7640 -0.0380
vn -0.1863 0.9824 -0.0114
vn -0.9320 -0.3582 -0.0545
vn 0.9870 -0.1604 -0.0127
vn 0.9999 -0.0000 -0.0129
vn 0.9870 0.1604 -0.0127
vn 0.6283 -0.7780 -0.0080
vn 0.9314 -0.3638 -0.0120
vn 0.1714 0.9852 -0.0021
vn -0.9320 0.3582 -0.0545
vn -0.6442 -0.7640 -0.0380
vn -0.1863 -0.9824 -0.0114
vn -0.9870 -0.1605 0.0060
vn -1.0000 -0.0000 0.0061
vn -0.9870 0.1605 0.0060
vn 0.1833 -0.9830 0.0059
vn 0.6413 0.7670 0.0202
vn 0.9326 0.3596 0.0292
vn -0.6221 0.7829 0.0038
vn -0.1661 0.9861 0.0009
vn -0.9307 -0.3658 0.0057
vn 0.9866 -0.1600 0.0309
vn 0.9995 -0.0000 0.0313
vn 0.9866 0.1600 0.0309
vn 0.6413 -0.7670 0.0202
vn 0.9326 -0.3596 0.0292
vn 0.1833 0.9830 0.0059
vn -0.9307 0.3658 0.0057
vn -0.6221 -0.7829 0.0038
vn -0.1661 -0.9861 0.0009
vt 0.009563 0.380587
vt 0.018431 0.379573
vt 0.018821 0.972308
vt 0.010144 0.970884
vt 0.019308 0.355378
vt 0.010912 0.355810
vt 0.009840 0.331149
vt 0.018660 0.331253
vt 0.120638 0.355953
vt 0.112266 0.355514
vt 0.112954 0.331410
vt 0.121773 0.331339
vt 0.113909 0.305046
vt 0.123068 0.305258
vt 0.058237 0.996574
vt 0.049160 0.998180
vt 0.048199 0.972272
vt 0.056971 0.970829
vt 0.121943 0.380640
vt 0.113179 0.379637
vt 0.075349 0.969878
vt 0.084008 0.971307
vt 0.083081 0.997113
vt 0.074049 0.995504
vt 0.113332 0.971299
vt 0.122090 0.969866
vt 0.123330 0.995566
vt 0.114268 0.997160
vt 0.056278 0.380529
vt 0.047496 0.379534
vt 0.046552 0.355375
vt 0.054937 0.355801
vt 0.075313 0.380655
vt 0.084166 0.379649
vt 0.048919 0.000633
vt 0.058274 0.001237
vt 0.056834 0.027535
vt 0.047869 0.027000
vt 0.008697 0.305601
vt 0.017827 0.305445
vt 0.017916 0.998162
vt 0.008866 0.996558
vt 0.074351 0.305201
vt 0.083511 0.305010
vt 0.084408 0.331379
vt 0.075586 0.331289
vt 0.032931 0.378382
vt 0.033541 0.973938
vt 0.048039 0.305453
vt 0.057168 0.305613
vt 0.056013 0.331156
vt 0.047196 0.331257
vt 0.032930 0.354866
vt 0.032928 0.331527
vt 0.085056 0.355491
vt 0.076672 0.355921
vt 0.098661 0.354989
vt 0.098681 0.331652
vt 0.098641 0.378471
vt 0.017022 0.000617
vt 0.032973 0.000148
vt 0.032964 0.026353
vt 0.018059 0.026993
vt 0.007662 0.001214
vt 0.009088 0.027526
vt 0.098700 0.972948
vt 0.098669 0.998815
vt 0.033534 0.999852
vt 0.114015 0.027154
vt 0.099030 0.026488
vt 0.099068 0.000148
vt 0.115094 0.000650
vt 0.084045 0.027112
vt 0.083039 0.000601
vt 0.075028 0.027633
vt 0.073632 0.001189
vt 0.098711 0.304884
vt 0.032933 0.305354
vt 0.501787 0.644547
vt 0.520104 0.652419
vt 0.518464 0.659476
vt 0.496503 0.649960
vt 0.132041 0.002972
vt 0.130367 0.028100
vt 0.123027 0.027698
vt 0.124496 0.001265
vt 0.454094 0.652635
vt 0.472466 0.644765
vt 0.477758 0.650200
vt 0.455727 0.659710
vt 0.067682 0.028016
vt 0.066079 0.002874
vt 0.494198 0.626081
vt 0.487321 0.627840
vt 0.063807 0.969754
vt 0.065409 0.994211
vt 0.480094 0.626254
vt 0.486995 0.628023
vt 0.001717 0.994202
vt 0.003314 0.969818
vt 0.146870 0.015651
vt 0.139240 0.034166
vt 0.132338 0.032397
vt 0.141578 0.010215
vt 0.066915 0.993146
vt 0.068532 0.968807
vt 0.835139 0.034215
vt 0.827549 0.015744
vt 0.832834 0.010330
vt 0.842017 0.032455
vt 0.128914 0.968800
vt 0.130491 0.993214
vt 0.165246 0.007783
vt 0.163613 0.000707
vt 0.001779 0.027919
vt 0.000148 0.002902
vt 0.809229 0.007872
vt 0.810868 0.000812
vt 0.065783 0.002930
vt 0.064135 0.027931
vt 0.827432 0.644812
vt 0.835062 0.626298
vt 0.841964 0.628067
vt 0.832724 0.650248
vt 0.127990 0.356314
vt 0.128905 0.381332
vt 0.139215 0.626242
vt 0.146805 0.644709
vt 0.141521 0.650123
vt 0.132338 0.628002
vt 0.068344 0.381341
vt 0.069308 0.356268
vt 0.809058 0.652680
vt 0.810690 0.659756
vt 0.129009 0.331417
vt 0.165120 0.652578
vt 0.163483 0.659635
vt 0.068347 0.331350
vt 0.501850 0.015630
vt 0.494222 0.034141
vt 0.487321 0.032373
vt 0.496559 0.010196
vt 0.062303 0.356150
vt 0.063253 0.381215
vt 0.480149 0.034326
vt 0.472560 0.015862
vt 0.477842 0.010450
vt 0.487025 0.032567
vt 0.002582 0.381280
vt 0.003535 0.356158
vt 0.520221 0.007763
vt 0.518590 0.000689
vt 0.063259 0.331203
vt 0.454248 0.007996
vt 0.455884 0.000940
vt 0.002590 0.331193
vt 0.430937 0.652903
vt 0.430998 0.660032
vt 0.066844 0.053594
vt 0.074209 0.053727
vt 0.785429 0.652943
vt 0.785475 0.660074
vt 0.130361 0.305358
vt 0.057610 0.053956
vt 0.064914 0.053842
vt 0.785697 0.000448
vt 0.785629 0.007573
vt 0.001436 0.305601
vt 0.431207 0.000593
vt 0.431159 0.007713
vt 0.347224 0.010898
vt 0.347207 0.018023
vt 0.007553 0.218091
vt 0.000148 0.218083
vt 0.543318 0.000378
vt 0.543358 0.007508
vt 0.064427 0.305617
vt 0.131136 0.053657
vt 0.123788 0.053775
vt 0.543218 0.652715
vt 0.543148 0.659837
vt 0.066738 0.140416
vt 0.074092 0.140323
vt 0.347040 0.653236
vt 0.347043 0.660350
vt 0.032955 0.218084
vt 0.048935 0.218094
vt 0.016976 0.218085
vt 0.114516 0.053893
vt 0.098991 0.053991
vt 0.083488 0.053861
vt 0.058357 0.218106
vt 0.017551 0.054086
vt 0.008320 0.053978
vt 0.048394 0.054074
vt 0.032956 0.054183
vt 0.188699 0.652871
vt 0.188645 0.659991
vt 0.067058 0.305284
vt 0.000988 0.053867
vt 0.188829 0.000383
vt 0.188888 0.007512
vt 0.720042 0.000148
vt 0.720042 0.007258
vt 0.057524 0.121213
vt 0.064822 0.121404
vt 0.131503 0.237067
vt 0.124085 0.237074
vt 0.719688 0.647487
vt 0.719695 0.654610
vt 0.098791 0.237019
vt 0.114697 0.237048
vt 0.082886 0.237010
vt 0.073497 0.237013
vt 0.114460 0.140338
vt 0.123716 0.140385
vt 0.083349 0.140299
vt 0.098907 0.140261
vt 0.627037 0.653129
vt 0.627027 0.660238
vt 0.131074 0.140492
vt 0.065763 0.218101
vt 0.627365 0.010791
vt 0.627374 0.017918
vt 0.017603 0.121124
vt 0.008420 0.121195
vt 0.048343 0.121138
vt 0.032978 0.121021
vt 0.254387 0.647494
vt 0.254372 0.654614
vt 0.066079 0.236989
vt 0.001132 0.121389
vt 0.254544 0.000148
vt 0.254537 0.007263
s 1
usemtl Mattress
f 86/1/86 30/2/30 7/3/7 47/4/47
f 31/5/31 89/6/89 83/7/83 34/8/34
f 62/9/62 24/10/24 27/11/27 59/12/59
f 129/13/129 141/14/141 59/12/59 27/11/27
f 44/15/44 6/16/6 9/17/9 41/18/41
f 56/19/56 19/20/19 24/10/24 62/9/62
f 101/21/101 10/22/10 15/23/15 107/24/107
f 12/25/12 95/26/95 98/27/98 13/28/13
f 74/29/74 28/30/28 33/31/33 80/32/80
f 68/33/68 21/34/21 10/22/10 101/21/101
f 13/35/13 98/36/98 92/37/92 16/38/16
f 124/39/124 112/40/112 34/8/34 83/7/83
f 4/41/4 53/42/53 47/4/47 7/3/7
f 131/43/131 127/44/127 25/45/25 65/46/65
f 30/2/30 29/47/29 8/48/8 7/3/7
f 29/47/29 28/30/28 9/17/9 8/48/8
f 114/49/114 121/50/121 77/51/77 36/52/36
f 33/31/33 32/53/32 35/54/35 36/52/36
f 32/53/32 31/5/31 34/8/34 35/54/35
f 80/32/80 33/31/33 36/52/36 77/51/77
f 28/30/28 29/47/29 32/53/32 33/31/33
f 29/47/29 30/2/30 31/5/31 32/53/32
f 22/55/22 71/56/71 65/46/65 25/45/25
f 24/10/24 23/57/23 26/58/26 27/11/27
f 23/57/23 22/55/22 25/45/25 26/58/26
f 19/20/19 56/19/56 95/26/95 12/25/12
f 19/20/19 20/59/20 23/57/23 24/10/24
f 20/59/20 21/34/21 22/55/22 23/57/23
f 15/60/15 14/61/14 17/62/17 18/63/18
f 14/61/14 13/35/13 16/38/16 17/62/17
f 107/64/107 15/60/15 18/63/18 104/65/104
f 10/22/10 11/66/11 14/67/14 15/23/15
f 11/66/11 12/25/12 13/28/13 14/67/14
f 28/30/28 74/29/74 41/18/41 9/17/9
f 6/16/6 5/68/5 8/48/8 9/17/9
f 5/68/5 4/41/4 7/3/7 8/48/8
f 1/69/1 2/70/2 5/71/5 6/72/6
f 2/70/2 3/73/3 4/74/4 5/71/5
f 3/73/3 50/75/50 53/76/53 4/74/4
f 127/44/127 128/77/128 26/58/26 25/45/25
f 128/77/128 129/13/129 27/11/27 26/58/26
f 21/34/21 68/33/68 71/56/71 22/55/22
f 21/34/21 20/59/20 11/66/11 10/22/10
f 20/59/20 19/20/19 12/25/12 11/66/11
f 30/2/30 86/1/86 89/6/89 31/5/31
f 112/40/112 113/78/113 35/54/35 34/8/34
f 113/78/113 114/49/114 36/52/36 35/54/35
f 43/79/43 37/80/37 39/81/39 45/82/45
f 45/83/45 39/84/39 38/85/38 44/86/44
f 49/87/49 52/88/52 54/89/54 51/90/51
f 51/91/51 54/92/54 53/76/53 50/75/50
f 40/93/40 43/79/43 45/82/45 42/94/42
f 42/95/42 45/96/45 44/15/44 41/18/41
f 52/88/52 46/97/46 48/98/48 54/89/54
f 54/99/54 48/100/48 47/4/47 53/42/53
f 106/101/106 100/102/100 102/103/102 108/104/108
f 108/105/108 102/106/102 101/21/101 107/24/107
f 94/107/94 97/108/97 99/109/99 96/110/96
f 96/111/96 99/112/99 98/27/98 95/26/95
f 103/113/103 106/101/106 108/104/108 105/114/105
f 105/115/105 108/116/108 107/64/107 104/65/104
f 97/108/97 91/117/91 93/118/93 99/109/99
f 99/119/99 93/120/93 92/37/92 98/36/98
f 61/121/61 55/122/55 57/123/57 63/124/63
f 63/125/63 57/126/57 56/19/56 62/9/62
f 67/127/67 70/128/70 72/129/72 69/130/69
f 69/131/69 72/132/72 71/56/71 68/33/68
f 58/133/58 61/121/61 63/124/63 60/134/60
f 60/135/60 63/125/63 62/9/62 59/12/59
f 70/128/70 64/136/64 66/137/66 72/129/72
f 72/132/72 66/138/66 65/46/65 71/56/71
f 79/139/79 73/140/73 75/141/75 81/142/81
f 81/143/81 75/144/75 74/29/74 80/32/80
f 85/145/85 88/146/88 90/147/90 87/148/87
f 87/149/87 90/150/90 89/6/89 86/1/86
f 76/151/76 79/139/79 81/142/81 78/152/78
f 78/153/78 81/143/81 80/32/80 77/51/77
f 88/146/88 82/154/82 84/155/84 90/147/90
f 90/150/90 84/156/84 83/7/83 89/6/89
f 46/97/46 85/145/85 87/148/87 48/98/48
f 48/100/48 87/149/87 86/1/86 47/4/47
f 73/140/73 40/93/40 42/94/42 75/141/75
f 75/144/75 42/95/42 41/18/41 74/29/74
f 115/157/115 49/87/49 51/90/51 116/158/116
f 116/159/116 51/91/51 50/75/50 117/160/117
f 132/161/132 58/133/58 60/134/60 140/162/140
f 140/163/140 60/135/60 59/12/59 141/14/141
f 133/164/133 92/37/92 93/120/93 142/165/142
f 142/166/142 93/118/93 91/117/91 143/167/143
f 95/26/95 56/19/56 57/126/57 96/111/96
f 96/110/96 57/123/57 55/122/55 94/107/94
f 124/39/124 83/7/83 84/156/84 125/168/125
f 125/169/125 84/155/84 82/154/82 126/170/126
f 68/33/68 101/21/101 102/106/102 69/131/69
f 69/130/69 102/103/102 100/102/100 67/127/67
f 38/85/38 1/69/1 6/72/6 44/86/44
f 179/171/179 125/169/125 126/170/126 180/172/180
f 171/173/171 124/39/124 125/168/125 179/174/179
f 78/152/78 122/175/122 123/176/123 76/151/76
f 77/51/77 121/50/121 122/177/122 78/153/78
f 39/84/39 119/178/119 120/179/120 38/85/38
f 37/80/37 118/180/118 119/181/119 39/81/39
f 175/182/175 116/159/116 117/160/117 176/183/176
f 166/184/166 115/157/115 116/158/116 175/185/175
f 164/186/164 165/187/165 114/49/114 113/78/113
f 163/188/163 164/186/164 113/78/113 112/40/112
f 2/70/2 1/69/1 111/189/111 110/190/110
f 3/73/3 2/70/2 110/190/110 109/191/109
f 165/187/165 178/192/178 121/50/121 114/49/114
f 50/75/50 3/73/3 109/191/109 117/160/117
f 171/173/171 163/188/163 112/40/112 124/39/124
f 1/69/1 38/85/38 120/179/120 111/189/111
f 104/65/104 18/63/18 136/193/136 144/194/144
f 16/38/16 92/37/92 133/164/133 138/195/138
f 18/63/18 17/62/17 137/196/137 136/193/136
f 17/62/17 16/38/16 138/195/138 137/196/137
f 64/136/64 139/197/139 130/198/130 66/137/66
f 66/138/66 130/199/130 131/43/131 65/46/65
f 104/65/104 144/194/144 134/200/134 105/115/105
f 105/114/105 134/201/134 135/202/135 103/113/103
f 151/203/151 142/166/142 143/167/143 152/204/152
f 160/205/160 133/164/133 142/165/142 151/206/151
f 149/207/149 140/163/140 141/14/141 150/208/150
f 159/209/159 132/161/132 140/162/140 149/210/149
f 155/211/155 156/212/156 129/13/129 128/77/128
f 154/213/154 155/211/155 128/77/128 127/44/127
f 158/214/158 154/213/154 127/44/127 131/43/131
f 156/212/156 150/208/150 141/14/141 129/13/129
f 174/215/174 168/216/168 150/208/150 156/212/156
f 176/183/176 172/217/172 154/213/154 158/214/158
f 172/217/172 173/218/173 155/211/155 154/213/154
f 173/218/173 174/215/174 156/212/156 155/211/155
f 177/219/177 159/209/159 149/210/149 167/220/167
f 167/221/167 149/207/149 150/208/150 168/216/168
f 178/192/178 160/205/160 151/206/151 169/222/169
f 169/223/169 151/203/151 152/204/152 170/224/170
f 94/107/94 55/122/55 61/121/61 97/108/97
f 97/108/97 61/121/61 58/133/58 91/117/91
f 52/88/52 88/146/88 85/145/85 46/97/46
f 49/87/49 82/154/82 88/146/88 52/88/52
f 132/161/132 143/167/143 91/117/91 58/133/58
f 144/194/144 136/193/136 145/225/145 153/226/153
f 138/195/138 133/164/133 160/205/160 147/227/147
f 159/209/159 152/204/152 143/167/143 132/161/132
f 136/193/136 137/196/137 146/228/146 145/225/145
f 137/196/137 138/195/138 147/227/147 146/228/146
f 139/197/139 148/229/148 157/230/157 130/198/130
f 130/199/130 157/231/157 158/214/158 131/43/131
f 144/194/144 153/226/153 161/232/161 134/200/134
f 134/201/134 161/233/161 162/234/162 135/202/135
f 115/157/115 126/170/126 82/154/82 49/87/49
f 166/184/166 180/172/180 126/170/126 115/157/115
f 180/172/180 166/184/166 148/229/148 162/234/162
f 162/234/162 148/229/148 139/197/139 135/202/135
f 135/202/135 139/197/139 64/136/64 103/113/103
f 177/219/177 170/224/170 152/204/152 159/209/159
f 170/224/170 177/219/177 118/180/118 123/176/123
f 123/176/123 118/180/118 37/80/37 76/151/76
f 122/175/122 169/223/169 170/224/170 123/176/123
f 121/50/121 178/192/178 169/222/169 122/177/122
f 119/178/119 167/221/167 168/216/168 120/179/120
f 118/180/118 177/219/177 167/220/167 119/181/119
f 110/190/110 111/189/111 174/215/174 173/218/173
f 109/191/109 110/190/110 173/218/173 172/217/172
f 117/160/117 109/191/109 172/217/172 176/183/176
f 111/189/111 120/179/120 168/216/168 174/215/174
f 43/79/43 79/139/79 76/151/76 37/80/37
f 153/226/153 145/225/145 163/188/163 171/173/171
f 147/227/147 160/205/160 178/192/178 165/187/165
f 40/93/40 73/140/73 79/139/79 43/79/43
f 145/225/145 146/228/146 164/186/164 163/188/163
f 146/228/146 147/227/147 165/187/165 164/186/164
f 148/229/148 166/184/166 175/185/175 157/230/157
f 157/231/157 175/182/175 176/183/176 158/214/158
f 153/226/153 171/173/171 179/174/179 161/232/161
f 161/233/161 179/171/179 180/172/180 162/234/162
f 103/113/103 64/136/64 70/128/70 106/101/106
f 106/101/106 70/128/70 67/127/67 100/102/100
