# Blender 4.3.2
# www.blender.org
mtllib Book Open Game Res.mtl
o Book_Open_LR
v -0.291301 0.062758 0.221877
v -0.303019 0.031782 0.221877
v -0.291301 0.062758 -0.221877
v -0.303019 0.031782 -0.221877
v 0.000000 0.039233 -0.221877
v 0.000000 0.031782 -0.221877
v 0.000000 0.039233 0.221877
v 0.000000 0.031782 0.221877
v -0.162055 0.092727 -0.221877
v -0.158275 0.058397 0.221877
v -0.158275 0.058397 -0.221877
v -0.162055 0.092727 0.221877
v -0.041136 0.031782 -0.221877
v -0.057780 0.070768 0.221877
v -0.057780 0.070768 -0.221877
v -0.041136 0.031782 0.221877
v -0.114996 0.090973 -0.221877
v -0.099819 0.051291 0.221877
v -0.099819 0.051291 -0.221877
v -0.114996 0.090973 0.221877
v -0.219465 0.082425 -0.221877
v -0.224516 0.051007 0.221877
v -0.224516 0.051007 -0.221877
v -0.219465 0.082425 0.221877
v -0.137026 0.093424 -0.221877
v -0.127204 0.056361 0.221877
v -0.127204 0.056361 -0.221877
v -0.137026 0.093424 0.221877
v -0.076859 0.044368 -0.221877
v -0.095028 0.085994 0.221877
v -0.095028 0.085994 -0.221877
v -0.076859 0.044368 0.221877
v -0.191610 0.056341 -0.221877
v -0.190360 0.088588 0.221877
v -0.190360 0.088588 -0.221877
v -0.191610 0.056341 0.221877
v 0.291301 0.062758 0.221877
v 0.303019 0.031782 0.221877
v 0.291301 0.062758 -0.221877
v 0.303019 0.031782 -0.221877
v 0.162055 0.092727 -0.221877
v 0.158275 0.058397 0.221877
v 0.158275 0.058397 -0.221877
v 0.162055 0.092727 0.221877
v 0.041136 0.031782 -0.221877
v 0.057780 0.070768 0.221877
v 0.057780 0.070768 -0.221877
v 0.041136 0.031782 0.221877
v 0.114996 0.090973 -0.221877
v 0.099819 0.051291 0.221877
v 0.099819 0.051291 -0.221877
v 0.114996 0.090973 0.221877
v 0.219465 0.082425 -0.221877
v 0.224516 0.051007 0.221877
v 0.224516 0.051007 -0.221877
v 0.219465 0.082425 0.221877
v 0.137026 0.093424 -0.221877
v 0.127204 0.056361 0.221877
v 0.127204 0.056361 -0.221877
v 0.137026 0.093424 0.221877
v 0.076859 0.044368 -0.221877
v 0.095028 0.085994 0.221877
v 0.095028 0.085994 -0.221877
v 0.076859 0.044368 0.221877
v 0.191610 0.056341 -0.221877
v 0.190360 0.088588 0.221877
v 0.190360 0.088588 -0.221877
v 0.191610 0.056341 0.221877
vn -0.0000 -0.0000 1.0000
vn 0.9353 -0.3538 -0.0000
vn 0.1760 -0.9844 -0.0000
vn 0.0864 -0.9963 -0.0000
vn -0.0000 -0.0000 -1.0000
vn -0.1991 0.9800 -0.0000
vn -0.2379 0.9713 -0.0000
vn -0.4294 -0.9031 -0.0000
vn -0.4791 -0.8778 -0.0000
vn 0.1239 0.9923 -0.0000
vn 0.0019 1.0000 -0.0000
vn -0.0000 1.0000 -0.0000
vn -0.3110 -0.9504 -0.0000
vn -0.0415 -0.9991 -0.0000
vn -0.1766 -0.9843 -0.0000
vn 0.3106 0.9505 -0.0000
vn 0.2357 0.9718 -0.0000
vn -0.1109 0.9938 -0.0000
vn 0.2641 -0.9645 -0.0000
vn 0.2357 -0.9718 -0.0000
vn 0.3323 0.9432 -0.0000
vn -0.9353 -0.3538 -0.0000
vn -0.1760 -0.9844 -0.0000
vn -0.0864 -0.9963 -0.0000
vn 0.1991 0.9800 -0.0000
vn 0.2379 0.9713 -0.0000
vn 0.4294 -0.9031 -0.0000
vn 0.4791 -0.8778 -0.0000
vn -0.1239 0.9923 -0.0000
vn -0.0019 1.0000 -0.0000
vn 0.3110 -0.9504 -0.0000
vn 0.0415 -0.9991 -0.0000
vn 0.1766 -0.9843 -0.0000
vn -0.3106 0.9505 -0.0000
vn -0.2357 0.9718 -0.0000
vn 0.1109 0.9938 -0.0000
vn -0.2641 -0.9645 -0.0000
vn -0.2357 -0.9718 -0.0000
vn -0.3323 0.9432 -0.0000
vt 0.853252 0.404633
vt 0.809795 0.386080
vt 0.809795 0.340227
vt 0.818101 0.340227
vt 0.779941 0.496592
vt 0.743024 0.496592
vt 0.743024 0.001953
vt 0.779941 0.001953
vt 0.466805 0.001953
vt 0.498690 0.001953
vt 0.498690 0.496592
vt 0.466805 0.496592
vt 0.914285 0.095595
vt 0.879265 0.089965
vt 0.857835 0.002461
vt 0.892363 0.015522
vt 0.866245 0.584858
vt 0.844324 0.664932
vt 0.809795 0.677993
vt 0.831225 0.590488
vt 0.001953 0.593499
vt 0.001953 0.503408
vt 0.496592 0.503408
vt 0.496592 0.593499
vt 0.619101 0.001953
vt 0.692475 0.001953
vt 0.692475 0.496592
vt 0.619101 0.496592
vt 0.001953 0.702593
vt 0.001953 0.667885
vt 0.496592 0.667885
vt 0.496592 0.702593
vt 0.901292 0.275821
vt 0.866141 0.340227
vt 0.857835 0.340227
vt 0.857835 0.294374
vt 0.918263 0.234301
vt 0.871865 0.254555
vt 0.001953 0.855256
vt 0.001953 0.809403
vt 0.496592 0.809403
vt 0.496592 0.855256
vt 0.574247 0.001953
vt 0.574247 0.496592
vt 0.870224 0.446152
vt 0.823825 0.425899
vt 0.878506 0.492966
vt 0.837193 0.482017
vt 0.831542 0.451492
vt 0.875773 0.468410
vt 0.526600 0.001953
vt 0.551308 0.001953
vt 0.551308 0.496592
vt 0.526600 0.496592
vt 0.926545 0.187488
vt 0.923813 0.212044
vt 0.879581 0.228961
vt 0.885233 0.198436
vt 0.001953 0.760368
vt 0.001953 0.733637
vt 0.496592 0.733637
vt 0.496592 0.760368
vt 0.001953 0.630657
vt 0.496592 0.630657
vt 0.873115 0.552415
vt 0.837171 0.553809
vt 0.921155 0.128038
vt 0.885210 0.126645
vt 0.350622 0.001953
vt 0.433642 0.001953
vt 0.433642 0.496592
vt 0.350622 0.496592
vt 0.925768 0.159588
vt 0.887502 0.163802
vt 0.877729 0.520865
vt 0.839463 0.516652
vt 0.001953 0.802587
vt 0.496592 0.802587
vt 0.853252 0.275821
vt 0.809795 0.294374
vt 0.699292 0.496592
vt 0.699292 0.001953
vt 0.736208 0.001953
vt 0.736208 0.496592
vt 0.118136 0.496592
vt 0.118136 0.001953
vt 0.150021 0.001953
vt 0.150021 0.496592
vt 0.914285 0.584858
vt 0.892363 0.664932
vt 0.857834 0.677993
vt 0.879265 0.590488
vt 0.866245 0.095595
vt 0.831225 0.089965
vt 0.809795 0.002461
vt 0.844324 0.015522
vt 0.712496 0.998047
vt 0.712496 0.503408
vt 0.802587 0.503408
vt 0.802587 0.998047
vt 0.270432 0.496592
vt 0.270432 0.001953
vt 0.343806 0.001953
vt 0.343806 0.496592
vt 0.603402 0.998047
vt 0.603402 0.503408
vt 0.638111 0.503408
vt 0.638111 0.998047
vt 0.901292 0.404633
vt 0.857835 0.386080
vt 0.918263 0.446152
vt 0.871865 0.425899
vt 0.496592 0.901110
vt 0.001953 0.901110
vt 0.225578 0.496592
vt 0.225578 0.001953
vt 0.870224 0.234301
vt 0.823825 0.254555
vt 0.878506 0.187488
vt 0.875773 0.212044
vt 0.831542 0.228961
vt 0.837193 0.198436
vt 0.177931 0.496592
vt 0.177931 0.001953
vt 0.202639 0.001953
vt 0.202639 0.496592
vt 0.926545 0.492966
vt 0.885233 0.482017
vt 0.879581 0.451492
vt 0.923813 0.468410
vt 0.545627 0.998047
vt 0.545627 0.503408
vt 0.572358 0.503408
vt 0.572358 0.998047
vt 0.675338 0.998047
vt 0.675338 0.503408
vt 0.873115 0.128038
vt 0.837171 0.126645
vt 0.921154 0.552415
vt 0.885210 0.553809
vt 0.001953 0.496592
vt 0.001953 0.001953
vt 0.084973 0.001953
vt 0.084973 0.496592
vt 0.925768 0.520865
vt 0.887502 0.516652
vt 0.877729 0.159588
vt 0.839463 0.163802
vt 0.503408 0.998047
vt 0.503408 0.503408
s 1
usemtl Phone_Book_Open
f 15/1/1 13/2/1 6/3/1 5/4/1
f 1/5/2 2/6/2 4/7/2 3/8/2
f 35/9/3 9/10/4 12/11/4 34/12/3
f 24/13/5 22/14/5 2/15/5 1/16/5
f 21/17/1 3/18/1 4/19/1 23/20/1
f 23/21/6 4/22/7 2/23/7 22/24/6
f 15/25/8 5/26/9 7/27/9 14/28/8
f 27/29/10 11/30/11 10/31/11 26/32/10
f 14/33/5 7/34/5 8/35/5 16/36/5
f 30/37/5 14/33/5 16/36/5 32/38/5
f 6/39/12 13/40/12 16/41/12 8/42/12
f 31/43/13 15/25/8 14/28/8 30/44/13
f 31/45/1 29/46/1 13/2/1 15/1/1
f 25/47/1 27/48/1 19/49/1 17/50/1
f 25/51/14 17/52/15 20/53/15 28/54/14
f 28/55/5 20/56/5 18/57/5 26/58/5
f 29/59/16 19/60/17 18/61/17 32/62/16
f 33/63/18 23/21/6 22/24/6 36/64/18
f 35/65/1 21/17/1 23/20/1 33/66/1
f 34/67/5 36/68/5 22/14/5 24/13/5
f 3/69/19 21/70/20 24/71/20 1/72/19
f 12/73/5 28/55/5 26/58/5 10/74/5
f 9/10/4 25/51/14 28/54/14 12/11/4
f 9/75/1 11/76/1 27/48/1 25/47/1
f 19/60/17 27/29/10 26/32/10 18/61/17
f 13/77/21 29/59/16 32/62/16 16/78/21
f 17/50/1 19/49/1 29/46/1 31/45/1
f 17/52/15 31/43/13 30/44/13 20/53/15
f 20/56/5 30/37/5 32/38/5 18/57/5
f 12/73/5 10/74/5 36/68/5 34/67/5
f 9/75/1 35/65/1 33/66/1 11/76/1
f 11/30/11 33/63/18 36/64/18 10/31/11
f 21/70/20 35/9/3 34/12/3 24/71/20
f 47/79/1 5/4/1 6/3/1 45/80/1
f 37/81/22 39/82/22 40/83/22 38/84/22
f 67/85/23 66/86/23 44/87/24 41/88/24
f 56/89/5 37/90/5 38/91/5 54/92/5
f 53/93/1 55/94/1 40/95/1 39/96/1
f 55/97/25 54/98/25 38/99/26 40/100/26
f 47/101/27 46/102/27 7/103/28 5/104/28
f 59/105/29 58/106/29 42/107/30 43/108/30
f 46/109/5 48/110/5 8/35/5 7/34/5
f 62/111/5 64/112/5 48/110/5 46/109/5
f 6/39/12 8/42/12 48/113/12 45/114/12
f 63/115/31 62/116/31 46/102/27 47/101/27
f 63/117/1 47/79/1 45/80/1 61/118/1
f 57/119/1 49/120/1 51/121/1 59/122/1
f 57/123/32 60/124/32 52/125/33 49/126/33
f 60/127/5 58/128/5 50/129/5 52/130/5
f 61/131/34 64/132/34 50/133/35 51/134/35
f 65/135/36 68/136/36 54/98/25 55/97/25
f 67/137/1 65/138/1 55/94/1 53/93/1
f 66/139/5 56/89/5 54/92/5 68/140/5
f 39/141/37 37/142/37 56/143/38 53/144/38
f 44/145/5 42/146/5 58/128/5 60/127/5
f 41/88/24 44/87/24 60/124/32 57/123/32
f 41/147/1 57/119/1 59/122/1 43/148/1
f 51/134/35 50/133/35 58/106/29 59/105/29
f 45/149/39 48/150/39 64/132/34 61/131/34
f 49/120/1 63/117/1 61/118/1 51/121/1
f 49/126/33 52/125/33 62/116/31 63/115/31
f 52/130/5 50/129/5 64/112/5 62/111/5
f 44/145/5 66/139/5 68/140/5 42/146/5
f 41/147/1 43/148/1 65/138/1 67/137/1
f 43/108/30 42/107/30 68/136/36 65/135/36
f 53/144/38 56/143/38 66/86/23 67/85/23
